<?xml version="1.0" encoding="UTF-8" standalone="no"?>
<svg
   id="Capa_1"
   data-name="Capa 1"
   version="1.1"
   viewBox="0 0 166.53442 73.020027"
   width="166.53442"
   height="73.020027"
   sodipodi:docname="botonfirma.svg"
   xmlns:inkscape="http://www.inkscape.org/namespaces/inkscape"
   xmlns:sodipodi="http://sodipodi.sourceforge.net/DTD/sodipodi-0.dtd"
   xmlns="http://www.w3.org/2000/svg"
   xmlns:svg="http://www.w3.org/2000/svg">
  <sodipodi:namedview
     id="namedview25"
     pagecolor="#ffffff"
     bordercolor="#000000"
     borderopacity="0.25"
     inkscape:showpageshadow="2"
     inkscape:pageopacity="0.0"
     inkscape:pagecheckerboard="0"
     inkscape:deskcolor="#d1d1d1" />
  <defs
     id="defs4">
    <style
       id="style1">
      .cls-1 {
        font-size: 11.16px;
      }

      .cls-2 {
        opacity: .6;
      }

      .cls-2, .cls-3, .cls-4, .cls-5, .cls-6, .cls-7, .cls-8 {
        stroke-width: 0px;
      }

      .cls-2, .cls-5 {
        fill: #ffef51;
      }

      .cls-9 {
        filter: url(#drop-shadow-1);
      }

      .cls-10 {
        fill: none;
      }

      .cls-10, .cls-11 {
        stroke: #4d4d4d;
        stroke-linecap: round;
        stroke-linejoin: round;
      }

      .cls-3 {
        fill: #f3bd36;
      }

      .cls-4 {
        fill: #eb691d;
      }

      .cls-11 {
        fill: url(#linear-gradient);
      }

      .cls-12 {
        font-size: 8.31px;
      }

      .cls-13 {
        font-size: 9.82px;
      }

      .cls-14 {
        fill: #d34600;
        font-family: Montserrat-ExtraBold, Montserrat;
        font-weight: 700;
      }

      .cls-6 {
        fill: #c9c5bd;
      }

      .cls-7 {
        fill: #e0682b;
      }

      .cls-8 {
        fill: #6b1c26;
      }
    </style>
    <filter
       id="drop-shadow-1"
       filterUnits="userSpaceOnUse">
      <feOffset
         dx="0"
         dy="0"
         id="feOffset1" />
      <feGaussianBlur
         result="blur"
         stdDeviation="2"
         id="feGaussianBlur1" />
      <feFlood
         flood-color="#000"
         flood-opacity=".2"
         id="feFlood1" />
      <feComposite
         in2="blur"
         operator="in"
         id="feComposite1" />
      <feComposite
         in="SourceGraphic"
         id="feComposite2" />
    </filter>
    <linearGradient
       id="linear-gradient"
       x1="-113.64"
       y1="163.08"
       x2="-102.74"
       y2="189.33"
       gradientTransform="rotate(-45,-120.35254,-198.76834)"
       gradientUnits="userSpaceOnUse">
      <stop
         offset="0"
         stop-color="#fff"
         id="stop2" />
      <stop
         offset=".33"
         stop-color="#f5f6f6"
         id="stop3" />
      <stop
         offset="1"
         stop-color="#e6e7e8"
         id="stop4" />
    </linearGradient>
  </defs>
  <g
     id="g20"
     transform="translate(2.5344288,2.1000266)">
    <rect
       class="cls-6"
       x="9.0200005"
       y="31.299999"
       width="151.57001"
       height="39.619999"
       rx="19.809999"
       ry="19.809999"
       id="rect4" />
    <g
       id="g19">
      <path
         class="cls-3"
         d="M 144.19,67.51 H 32.24 C 21.3,67.51 12.43,58.64 12.43,47.7 v 0 c 0,-10.94 8.87,-19.81 19.81,-19.81 h 111.95 c 10.94,0 19.81,8.87 19.81,19.81 v 0 c 0,10.94 -8.87,19.81 -19.81,19.81 z"
         id="path4" />
      <path
         class="cls-5"
         d="m 32.24,66.17 c -10.19,0 -18.47,-8.29 -18.47,-18.47 0,-10.18 8.29,-18.47 18.47,-18.47 h 111.95 c 10.19,0 18.47,8.29 18.47,18.47 0,10.18 -8.29,18.47 -18.47,18.47 z"
         id="path5" />
      <path
         class="cls-4"
         d="m 32.24,64.84 c -9.45,0 -17.14,-7.69 -17.14,-17.14 0,-9.45 7.69,-17.14 17.14,-17.14 h 111.95 c 9.45,0 17.14,7.69 17.14,17.14 0,9.45 -7.69,17.14 -17.14,17.14 z"
         id="path6" />
      <path
         class="cls-7"
         d="m 32.24,63.5 c -8.71,0 -15.8,-7.09 -15.8,-15.8 0,-8.71 7.09,-15.8 15.8,-15.8 h 111.95 c 8.71,0 15.8,7.09 15.8,15.8 0,8.71 -7.09,15.8 -15.8,15.8 z"
         id="path7" />
      <path
         class="cls-3"
         d="m 159.99,47.7 v 0.11 c -0.06,8.66 -7.12,15.69 -15.8,15.69 H 32.24 C 23.56,63.5 16.5,56.47 16.44,47.81 V 47.7 c 0,-8.71 7.09,-15.8 15.8,-15.8 h 111.95 c 8.72,0 15.8,7.09 15.8,15.8 z"
         id="path8" />
      <path
         class="cls-2"
         d="m 159.99,47.7 v 0.11 c -0.61,0.08 -1.24,0.11 -1.88,0.11 H 18.32 c -0.64,0 -1.26,-0.04 -1.88,-0.11 V 47.7 c 0,-8.71 7.09,-15.8 15.8,-15.8 h 111.95 c 8.72,0 15.8,7.09 15.8,15.8 z"
         id="path9" />
      <path
         class="cls-3"
         d="m 143.17,62.03 c -7.91,0 -14.34,-6.43 -14.34,-14.34 0,-7.91 6.43,-14.34 14.34,-14.34 7.91,0 14.34,6.43 14.34,14.34 0,7.91 -6.43,14.34 -14.34,14.34 z"
         id="path10" />
      <path
         class="cls-4"
         d="m 143.17,60.7 c -7.17,0 -13,-5.83 -13,-13 0,-7.17 5.83,-13 13,-13 7.17,0 13,5.83 13,13 0,7.17 -5.83,13 -13,13 z"
         id="path11" />
      <g
         id="g18">
        <g
           id="g13">
          <path
             class="cls-8"
             d="m 149.38,48.05 c 0,0.34 -0.15,0.67 -0.41,0.91 l -4.93,4.44 c -0.37,0.33 -0.93,0.3 -1.26,-0.06 -0.33,-0.36 -0.3,-0.93 0.07,-1.26 l 4.47,-4.03 -4.47,-4.03 c -0.37,-0.33 -0.39,-0.89 -0.07,-1.26 0.33,-0.37 0.89,-0.39 1.26,-0.07 l 4.92,4.44 c 0.26,0.23 0.41,0.56 0.41,0.91 z"
             id="path12" />
          <path
             class="cls-8"
             d="m 143.96,48.05 c 0,0.34 -0.15,0.67 -0.41,0.91 l -4.93,4.44 c -0.37,0.33 -0.93,0.3 -1.26,-0.07 -0.33,-0.36 -0.3,-0.93 0.07,-1.26 l 4.47,-4.03 -4.47,-4.03 c -0.37,-0.33 -0.39,-0.89 -0.07,-1.26 0.33,-0.37 0.89,-0.39 1.26,-0.06 l 4.92,4.44 c 0.26,0.23 0.41,0.56 0.41,0.91 z"
             id="path13" />
        </g>
        <g
           id="g15">
          <path
             class="cls-7"
             d="m 150.09,47.34 c 0,0.34 -0.15,0.67 -0.41,0.91 l -4.93,4.44 c -0.37,0.33 -0.93,0.3 -1.26,-0.06 -0.33,-0.36 -0.3,-0.93 0.07,-1.26 l 4.47,-4.03 -4.47,-4.03 c -0.37,-0.33 -0.39,-0.89 -0.07,-1.26 0.33,-0.37 0.89,-0.39 1.26,-0.07 l 4.92,4.44 c 0.26,0.23 0.41,0.56 0.41,0.91 z"
             id="path14" />
          <path
             class="cls-7"
             d="m 144.67,47.34 c 0,0.34 -0.15,0.67 -0.41,0.91 l -4.93,4.44 c -0.37,0.33 -0.93,0.3 -1.26,-0.07 -0.33,-0.36 -0.3,-0.93 0.07,-1.26 l 4.47,-4.03 -4.47,-4.03 c -0.37,-0.33 -0.39,-0.89 -0.07,-1.26 0.33,-0.37 0.89,-0.39 1.26,-0.06 l 4.92,4.44 c 0.26,0.23 0.41,0.56 0.41,0.91 z"
             id="path15" />
        </g>
        <g
           id="g17">
          <path
             class="cls-3"
             d="m 149.73,47.7 c 0,0.34 -0.15,0.67 -0.41,0.91 l -4.93,4.44 c -0.37,0.33 -0.93,0.3 -1.26,-0.06 -0.33,-0.36 -0.3,-0.93 0.07,-1.26 l 4.47,-4.03 -4.47,-4.03 c -0.37,-0.33 -0.39,-0.89 -0.07,-1.26 0.33,-0.37 0.89,-0.39 1.26,-0.07 l 4.92,4.44 c 0.26,0.23 0.41,0.56 0.41,0.91 z"
             id="path16" />
          <path
             class="cls-3"
             d="m 144.32,47.7 c 0,0.34 -0.15,0.67 -0.41,0.91 l -4.93,4.44 c -0.37,0.33 -0.93,0.3 -1.26,-0.07 -0.33,-0.36 -0.3,-0.93 0.07,-1.26 l 4.47,-4.03 -4.47,-4.03 c -0.37,-0.33 -0.39,-0.89 -0.07,-1.26 0.33,-0.37 0.89,-0.39 1.26,-0.06 l 4.92,4.44 c 0.26,0.23 0.41,0.56 0.41,0.91 z"
             id="path17" />
        </g>
      </g>
    </g>
  </g>
  <g
     id="text23"
     class="cls-14"
     style="font-weight:700;font-family:Montserrat-ExtraBold, Montserrat;fill:#d34600"
     transform="translate(24.464429,48.500027)"
     aria-label="¡Conoce nuestrospróximos eventos aqui!">
    <path
       style="font-size:11.16px"
       d="M 3.3458203,-6.6752929 H 1.1443359 V -8.1138866 H 3.3458203 Z M 3.3839648,0 H 1.1061914 l 0.2506641,-5.7761718 h 1.7764452 z m 5.8088671,0.15802734 q -0.9045703,0 -1.6729101,-0.26701171 Q 6.7570311,-0.37599609 6.2066601,-0.9045703 5.656289,-1.4331445 5.3511327,-2.2232812 q -0.299707,-0.7901367 -0.299707,-1.8254883 0,-0.9645117 0.2888086,-1.7491992 0.2888086,-0.7846875 0.8391797,-1.345957 0.5285742,-0.5394726 1.3078124,-0.8337304 0.7846875,-0.2942578 1.7110547,-0.2942578 0.5122266,0 0.9209179,0.059941 0.414141,0.054492 0.762891,0.1471289 0.365097,0.1035351 0.659355,0.2343164 0.299707,0.125332 0.523125,0.2343164 v 1.9671679 H 11.824805 Q 11.672226,-5.7598245 11.43791,-5.9396488 11.209043,-6.119473 10.914785,-6.293848 10.615078,-6.468223 10.266328,-6.5881058 9.917578,-6.7079886 9.519785,-6.7079886 q -0.4413867,0 -0.8391797,0.1416797 -0.3977929,0.1362305 -0.7356445,0.4577344 -0.3215039,0.3106054 -0.523125,0.822832 -0.1961719,0.5122265 -0.1961719,1.2424218 0,0.7628907 0.2125196,1.2751172 0.2179687,0.5122266 0.5449218,0.8064844 0.3324024,0.299707 0.7410938,0.4304883 0.4086914,0.125332 0.8064843,0.125332 0.3814454,0 0.7519926,-0.1144336 0.375996,-0.1144336 0.69205,-0.3106055 0.267012,-0.1580273 0.495879,-0.3378515 0.228867,-0.1798242 0.375996,-0.3106055 h 0.217969 v 1.93992185 q -0.305156,0.13623047 -0.583066,0.25611328 -0.27791,0.11988281 -0.583067,0.20707031 -0.397793,0.11443359 -0.746543,0.174375 -0.3487496,0.0599414 -0.9590621,0.0599418 z M 19.747968,-3.0570117 q 0,1.5094336 -0.882773,2.38130858 -0.877324,0.86642577 -2.468496,0.86642577 -1.591172,0 -2.473946,-0.86642577 -0.877324,-0.87187498 -0.877324,-2.38130858 0,-1.520332 0.882774,-2.3867578 0.888222,-0.8664257 2.468496,-0.8664257 1.60207,0 2.473945,0.871875 0.877324,0.8718749 0.877324,2.3813085 z m -2.414004,1.4876367 q 0.190723,-0.2343164 0.28336,-0.5612695 0.09809,-0.3324023 0.09809,-0.9154687 0,-0.5394727 -0.09809,-0.9045703 -0.09809,-0.3650977 -0.272461,-0.5830664 -0.174375,-0.223418 -0.41959,-0.3160547 -0.245215,-0.092637 -0.528574,-0.092637 -0.28336,0 -0.506778,0.076289 -0.217968,0.076289 -0.41959,0.3051563 -0.179824,0.2125195 -0.288808,0.5830664 -0.103535,0.3705468 -0.103535,0.9318164 0,0.5013281 0.09264,0.8718749 0.09264,0.3650977 0.272461,0.5885157 0.174375,0.2125195 0.414141,0.3106054 0.245215,0.098086 0.55582,0.098086 0.267012,0 0.506778,-0.087187 0.245215,-0.092637 0.41414,-0.3051563 z M 27.300585,0 h -1.972617 v -3.0352148 q 0,-0.3705469 -0.03815,-0.7356445 -0.03814,-0.3705469 -0.130781,-0.5449219 -0.108984,-0.2016211 -0.321504,-0.2942578 -0.20707,-0.092637 -0.583066,-0.092637 -0.267012,0 -0.544922,0.087188 -0.272461,0.087187 -0.593965,0.2779101 V 0 h -1.961719 v -6.1194726 h 1.961719 v 0.6757031 q 0.523125,-0.4086914 1.002656,-0.6266601 0.484981,-0.2179688 1.073496,-0.2179688 0.991758,0 1.547578,0.5776172 0.56127,0.5776172 0.56127,1.7274023 z m 8.059395,-3.0570117 q 0,1.5094336 -0.882773,2.38130858 -0.877325,0.86642577 -2.468496,0.86642577 -1.591172,0 -2.473946,-0.86642577 -0.877324,-0.87187498 -0.877324,-2.38130858 0,-1.520332 0.882774,-2.3867578 0.888222,-0.8664257 2.468496,-0.8664257 1.60207,0 2.473945,0.871875 0.877324,0.8718749 0.877324,2.3813085 z m -2.414004,1.4876367 q 0.190723,-0.2343164 0.28336,-0.5612695 0.09808,-0.3324023 0.09808,-0.9154687 0,-0.5394727 -0.09808,-0.9045703 -0.09809,-0.3650977 -0.272461,-0.5830664 -0.174375,-0.223418 -0.41959,-0.3160547 -0.245215,-0.092637 -0.528574,-0.092637 -0.28336,0 -0.506778,0.076289 -0.217969,0.076289 -0.41959,0.3051563 -0.179824,0.2125195 -0.288808,0.5830664 Q 30.69,-3.6073828 30.69,-3.0461132 q 0,0.5013281 0.09264,0.8718749 0.09264,0.3650977 0.272461,0.5885157 0.174375,0.2125195 0.414141,0.3106054 0.245215,0.098086 0.55582,0.098086 0.267012,0 0.506778,-0.087187 0.245214,-0.092637 0.41414,-0.3051563 z m 7.007696,1.73285156 q -0.801035,0 -1.46584,-0.19072265 -0.659355,-0.19072266 -1.149785,-0.58851562 -0.48498,-0.39779299 -0.751992,-1.00265619 -0.267012,-0.6048633 -0.267012,-1.4167969 0,-0.8555273 0.283359,-1.4767383 0.288809,-0.6212109 0.801036,-1.0299023 0.495879,-0.3868945 1.144336,-0.5667187 0.648457,-0.1798243 1.345957,-0.1798243 0.62666,0 1.155234,0.1362305 0.528574,0.1362305 0.986309,0.3541992 v 1.6729102 h -0.277911 q -0.114433,-0.098086 -0.27791,-0.2288672 -0.158027,-0.1307813 -0.392344,-0.2561133 -0.223418,-0.1198828 -0.490429,-0.1961719 -0.267012,-0.081738 -0.621211,-0.081738 -0.784688,0 -1.209727,0.5013282 -0.41959,0.4958789 -0.41959,1.3514062 0,0.8827734 0.430489,1.3405078 0.435937,0.4577344 1.231523,0.4577344 0.370547,0 0.664805,-0.081738 0.299707,-0.087188 0.495879,-0.2016211 0.185273,-0.1089844 0.326953,-0.2288672 0.14168,-0.1198828 0.261562,-0.2343164 h 0.277911 v 1.67291014 q -0.463184,0.21796874 -0.969961,0.34330077 -0.501329,0.13078125 -1.111641,0.13078065 z m 9.40535,-2.86083976 h -4.490156 q 0.04359,0.7192968 0.544922,1.1007421 0.506777,0.3814453 1.487636,0.3814453 0.621211,0 1.204278,-0.2234179 0.583066,-0.223418 0.920918,-0.4795313 h 0.217968 v 1.57482422 q -0.664804,0.26701172 -1.25332,0.38689453 -0.588516,0.11988281 -1.302363,0.11988281 -1.841836,0 -2.822695,-0.82828124 -0.98086,-0.82828122 -0.98086,-2.35951172 0,-1.5148828 0.926367,-2.3976562 0.931817,-0.8882226 2.550235,-0.8882226 1.493086,0 2.245078,0.7574414 0.751992,0.7519921 0.751992,2.168789 z m -1.95082,-1.1497852 q -0.01635,-0.6157617 -0.305157,-0.9263672 -0.288808,-0.3106054 -0.899121,-0.3106054 -0.566718,0 -0.931816,0.2942578 -0.365098,0.2942578 -0.408691,0.9427148 z M 60.704296,0 h -1.972617 v -3.0352148 q 0,-0.3705469 -0.03815,-0.7356445 -0.03814,-0.3705469 -0.130781,-0.5449219 -0.108984,-0.2016211 -0.321504,-0.2942578 -0.20707,-0.092637 -0.583066,-0.092637 -0.267012,0 -0.544922,0.087188 -0.272461,0.087187 -0.593965,0.2779101 V 0 h -1.961718 v -6.1194726 h 1.961718 v 0.6757031 q 0.523125,-0.4086914 1.002656,-0.6266601 0.484981,-0.2179688 1.073497,-0.2179688 0.991757,0 1.547578,0.5776172 0.561269,0.5776172 0.561269,1.7274023 z m 7.901366,0 h -1.961719 v -0.67570312 q -0.544921,0.41414062 -0.997207,0.63210937 -0.452285,0.21251953 -1.078945,0.21251953 -1.013555,0 -1.563926,-0.5830664 -0.544922,-0.5830664 -0.544922,-1.72195308 v -3.9833789 h 1.972618 v 3.0352148 q 0,0.4631836 0.02725,0.7737891 0.0327,0.3051562 0.141679,0.5067773 0.103536,0.2016211 0.310606,0.2942578 0.212519,0.092637 0.588515,0.092637 0.250665,0 0.555821,-0.092637 0.305156,-0.092637 0.588515,-0.2724609 v -4.3375781 h 1.961719 z m 7.879569,-2.6973632 h -4.490156 q 0.04359,0.7192968 0.544922,1.1007421 0.506777,0.3814453 1.487637,0.3814453 0.621211,0 1.204277,-0.2234179 0.583066,-0.223418 0.920918,-0.4795313 h 0.217969 v 1.57482422 q -0.664805,0.26701172 -1.253321,0.38689453 -0.588515,0.11988281 -1.302363,0.11988281 -1.841836,0 -2.822695,-0.82828124 -0.98086,-0.82828122 -0.98086,-2.35951172 0,-1.5148828 0.926368,-2.3976562 0.931816,-0.8882226 2.550234,-0.8882226 1.493086,0 2.245078,0.7574414 0.751992,0.7519921 0.751992,2.168789 z m -1.95082,-1.1497852 q -0.01635,-0.6157617 -0.305156,-0.9263672 -0.288809,-0.3106054 -0.899121,-0.3106054 -0.566719,0 -0.931817,0.2942578 -0.365097,0.2942578 -0.408691,0.9427148 z m 8.653364,1.9072266 q 0,0.948164 -0.850078,1.5312304 -0.850078,0.57761718 -2.326817,0.57761718 -0.817382,0 -1.482187,-0.15257812 -0.664805,-0.15257813 -1.068047,-0.33785156 v -1.6129687 h 0.179824 q 0.147129,0.1035351 0.337852,0.2288672 0.196172,0.1198828 0.550371,0.2615625 0.305156,0.125332 0.692051,0.2179687 0.386894,0.087187 0.828281,0.087187 0.577617,0 0.855527,-0.125332 0.27791,-0.1307813 0.27791,-0.3814453 0,-0.223418 -0.163476,-0.3215039 -0.163477,-0.1035352 -0.621211,-0.1961719 -0.217969,-0.049043 -0.593965,-0.1035352 -0.370547,-0.059941 -0.675703,-0.1416797 -0.83373,-0.2179687 -1.236973,-0.6757031 -0.403242,-0.4631836 -0.403242,-1.1497851 0,-0.8827734 0.833731,-1.4658398 0.839179,-0.5885157 2.288671,-0.5885157 0.686602,0 1.313262,0.1416797 0.63211,0.1362305 0.986309,0.2942578 v 1.5475781 h -0.168926 q -0.435938,-0.299707 -0.997207,-0.4849804 -0.55582,-0.1907227 -1.127988,-0.1907227 -0.474082,0 -0.801035,0.1307813 -0.321504,0.1307812 -0.321504,0.3705468 0,0.2179688 0.147129,0.3324024 0.147128,0.1144336 0.69205,0.2288672 0.299707,0.059941 0.643008,0.1198828 0.34875,0.054492 0.6975,0.1416797 0.773789,0.2016211 1.144336,0.6375586 0.370547,0.4304882 0.370547,1.0789458 z m 5.214898,1.88542961 q -0.316055,0.08173828 -0.670254,0.12533203 -0.354199,0.04904297 -0.866426,0.04904297 -1.144336,0 -1.705605,-0.46318359 -0.555821,-0.46318358 -0.555821,-1.58572262 v -2.8608398 h -0.806484 v -1.3296094 h 0.806484 v -1.7491992 h 1.961719 v 1.7491992 h 1.836387 v 1.3296094 h -1.836387 v 2.168789 q 0,0.3215039 0.0054,0.5612695 0.0054,0.2397657 0.08719,0.4304883 0.07629,0.1907227 0.267011,0.3051563 0.196172,0.1089843 0.566719,0.1089843 0.152578,0 0.397793,-0.065391 0.250664,-0.065391 0.34875,-0.1198828 h 0.163477 z m 5.607246,-4.19589841 h -0.174375 q -0.125332,-0.043594 -0.403242,-0.065391 -0.27791,-0.021797 -0.463183,-0.021797 -0.41959,0 -0.741094,0.054492 -0.321504,0.054492 -0.692051,0.1852735 V 0 h -1.961719 v -6.1194726 h 1.961719 v 0.8991211 q 0.648457,-0.5558203 1.127988,-0.7356445 0.479532,-0.1852734 0.882774,-0.1852734 0.103535,0 0.234316,0.00545 0.130781,0.00545 0.228867,0.016348 z m 7.367341,1.1933789 q 0,1.5094336 -0.88277,2.38130858 -0.877327,0.86642577 -2.468499,0.86642577 -1.591172,0 -2.473945,-0.86642577 -0.877324,-0.87187498 -0.877324,-2.38130858 0,-1.520332 0.882773,-2.3867578 0.888223,-0.8664257 2.468496,-0.8664257 1.60207,0 2.473949,0.871875 0.87732,0.8718749 0.87732,2.3813085 z m -2.414003,1.4876367 q 0.190722,-0.2343164 0.283359,-0.5612695 0.09809,-0.3324023 0.09809,-0.9154687 0,-0.5394727 -0.09809,-0.9045703 -0.09809,-0.3650977 -0.272461,-0.5830664 -0.174375,-0.223418 -0.41959,-0.3160547 -0.245214,-0.092637 -0.528574,-0.092637 -0.283359,0 -0.506777,0.076289 -0.217969,0.076289 -0.41959,0.3051563 -0.179824,0.2125195 -0.288809,0.5830664 -0.103535,0.3705468 -0.103535,0.9318164 0,0.5013281 0.09264,0.8718749 0.09264,0.3650977 0.272461,0.5885157 0.174375,0.2125195 0.414141,0.3106054 0.245214,0.098086 0.55582,0.098086 0.267012,0 0.506777,-0.087187 0.245215,-0.092637 0.414141,-0.3051563 z m 9.138343,-0.3705468 q 0,0.948164 -0.85008,1.5312304 -0.85008,0.57761718 -2.32681,0.57761718 -0.81739,0 -1.48219,-0.15257812 -0.66481,-0.15257813 -1.06805,-0.33785156 v -1.6129687 h 0.17983 q 0.14713,0.1035351 0.33785,0.2288672 0.19617,0.1198828 0.55037,0.2615625 0.30516,0.125332 0.69205,0.2179687 0.38689,0.087187 0.82828,0.087187 0.57762,0 0.85553,-0.125332 0.27791,-0.1307813 0.27791,-0.3814453 0,-0.223418 -0.16348,-0.3215039 -0.16347,-0.1035352 -0.62121,-0.1961719 -0.21797,-0.049043 -0.59396,-0.1035352 -0.37055,-0.059941 -0.67571,-0.1416797 -0.83373,-0.2179687 -1.23697,-0.6757031 -0.40324,-0.4631836 -0.40324,-1.1497851 0,-0.8827734 0.83373,-1.4658398 0.83918,-0.5885157 2.28867,-0.5885157 0.6866,0 1.31326,0.1416797 0.63211,0.1362305 0.98631,0.2942578 v 1.5475781 h -0.16893 q -0.43593,-0.299707 -0.9972,-0.4849804 -0.55582,-0.1907227 -1.12799,-0.1907227 -0.47408,0 -0.80104,0.1307813 -0.3215,0.1307812 -0.3215,0.3705468 0,0.2179688 0.14713,0.3324024 0.14713,0.1144336 0.69205,0.2288672 0.29971,0.059941 0.64301,0.1198828 0.34875,0.054492 0.6975,0.1416797 0.77379,0.2016211 1.14433,0.6375586 0.37055,0.4304882 0.37055,1.0789458 z"
       id="path26" />
    <path
       style="font-size:8.31px"
       d="m 5.4453225,7.3087544 q 0,0.5640088 -0.1744775,1.0265772 Q 5.1004251,8.7979 4.8204495,9.0981637 4.528301,9.4146578 4.1590578,9.5769625 3.7898146,9.7392672 3.3678224,9.7392672 q -0.3895312,0 -0.6613916,-0.08521 Q 2.4345704,9.5729049 2.1505372,9.422773 v 1.898965 H 0.68979496 V 5.0932953 H 2.1505372 V 5.5680365 Q 2.4873195,5.3002338 2.8362746,5.1338715 3.1892873,4.9675091 3.647798,4.9675091 q 0.8520997,0 1.3227833,0.6248731 0.4747412,0.6248731 0.4747412,1.7163722 z m -1.505376,0.028403 q 0,-0.6654492 -0.2272266,-0.9657129 -0.2272266,-0.3002637 -0.7181983,-0.3002637 -0.2069385,0 -0.4260498,0.064922 -0.2191113,0.060864 -0.4179346,0.1785351 v 2.2925538 q 0.1460742,0.056807 0.3124366,0.073037 0.1663623,0.01623 0.328667,0.01623 0.5802393,0 0.8642725,-0.3367822 Q 3.9399465,8.0188374 3.9399465,7.3371574 Z M 9.8032038,6.4850581 H 9.67336 q -0.093325,-0.032461 -0.3002637,-0.048691 -0.2069385,-0.01623 -0.3448975,-0.01623 -0.3124365,0 -0.5518359,0.040576 -0.2393994,0.040576 -0.5153174,0.137959 V 9.6499996 H 6.5003032 V 5.0932953 h 1.4607423 v 0.6695069 q 0.4828564,-0.413877 0.8399268,-0.5477784 0.3570703,-0.137959 0.657334,-0.137959 0.077095,0 0.1744775,0.00406 0.097383,0.00406 0.17042,0.012173 z m 5.4858982,0.8886182 q 0,1.12396 -0.657334,1.7731788 -0.653277,0.6451611 -1.838101,0.6451611 -1.184824,0 -1.842158,-0.6451611 -0.653277,-0.6492188 -0.653277,-1.7731788 0,-1.1320753 0.657334,-1.7772365 0.661392,-0.6451611 1.838101,-0.6451611 1.19294,0 1.842158,0.6492188 0.653277,0.6492187 0.653277,1.7731788 z m -1.797525,1.1077295 q 0.142017,-0.1744775 0.210996,-0.4179346 0.07304,-0.2475146 0.07304,-0.6816797 0,-0.4017041 -0.07304,-0.6735645 -0.07304,-0.2718604 -0.20288,-0.4341651 -0.129844,-0.1663623 -0.312437,-0.2353418 -0.182593,-0.06898 -0.393589,-0.06898 -0.210996,0 -0.377358,0.056807 -0.162305,0.056807 -0.312437,0.2272266 -0.133901,0.158247 -0.215054,0.434165 -0.07709,0.275918 -0.07709,0.6938526 0,0.3733008 0.06898,0.6492188 0.06898,0.2718603 0.202881,0.4382227 0.129844,0.158247 0.308379,0.2312841 0.182593,0.073037 0.413877,0.073037 0.198823,0 0.377358,-0.064922 0.182593,-0.06898 0.308379,-0.2272266 z m 0.742544,-5.6319729 v 0.081152 L 12.80584,4.4440765 H 11.807666 L 12.809898,2.8494329 Z M 21.09961,9.6499996 H 19.395411 L 18.421583,8.2866402 17.423409,9.6499996 h -1.671738 l 1.797524,-2.2763233 -1.769121,-2.280381 h 1.704199 l 0.957598,1.3390137 0.961655,-1.3390137 h 1.675796 l -1.773179,2.2438624 z m 2.256036,0 H 21.894904 V 5.0932953 h 1.460742 z m 0.04058,-5.2059231 H 21.854327 V 3.336347 h 1.541895 z M 29.1905,6.4201362 V 9.6499996 H 27.721642 V 7.3736763 q 0,-0.3327247 -0.01623,-0.5640089 -0.01623,-0.2353418 -0.08927,-0.381416 -0.07304,-0.1460742 -0.223169,-0.2109961 -0.146074,-0.068979 -0.413877,-0.068979 -0.215054,0 -0.417935,0.089268 -0.20288,0.08521 -0.365185,0.1825928 v 3.2298625 h -1.46074 V 5.0932953 h 1.460742 v 0.5031445 q 0.377358,-0.296206 0.722256,-0.4625683 0.344897,-0.1663624 0.762832,-0.1663624 0.450395,0 0.795293,0.2028809 0.344897,0.1988233 0.539663,0.5883545 0.438223,-0.3692431 0.8521,-0.5802392 0.413877,-0.2109962 0.811523,-0.2109962 0.738486,0 1.119903,0.4422803 0.385473,0.4422803 0.385473,1.2740919 V 9.6499996 H 30.716164 V 7.3736763 q 0,-0.3367823 -0.01623,-0.5680665 -0.01217,-0.2312842 -0.08521,-0.3773584 -0.06898,-0.1460742 -0.219111,-0.2109961 -0.150132,-0.068979 -0.421992,-0.068979 -0.182593,0 -0.357071,0.064922 -0.174477,0.060864 -0.426049,0.2069385 z m 8.995739,0.9535401 q 0,1.12396 -0.657334,1.7731788 -0.653277,0.6451611 -1.838101,0.6451611 -1.184824,0 -1.842158,-0.6451611 -0.653277,-0.6492188 -0.653277,-1.7731788 0,-1.1320753 0.657334,-1.7772365 0.661392,-0.6451611 1.838101,-0.6451611 1.192939,0 1.842158,0.6492188 0.653277,0.6492187 0.653277,1.7731788 z m -1.797525,1.1077295 q 0.142017,-0.1744775 0.210996,-0.4179346 0.07304,-0.2475146 0.07304,-0.6816797 0,-0.4017041 -0.07304,-0.6735645 -0.07304,-0.2718604 -0.202881,-0.4341651 -0.129844,-0.1663623 -0.312436,-0.2353418 -0.182593,-0.06898 -0.393589,-0.06898 -0.210996,0 -0.377359,0.056807 -0.162304,0.056807 -0.312436,0.2272266 -0.133902,0.158247 -0.215054,0.434165 -0.07709,0.275918 -0.07709,0.6938526 0,0.3733008 0.06898,0.6492188 0.06898,0.2718603 0.202881,0.4382227 0.129844,0.158247 0.308379,0.2312841 0.182592,0.073037 0.413877,0.073037 0.198823,0 0.377358,-0.064922 0.182593,-0.06898 0.308379,-0.2272266 z m 6.804624,-0.275918 q 0,0.7060255 -0.632989,1.1401905 -0.632988,0.4301075 -1.732602,0.4301075 -0.608643,0 -1.103672,-0.1136133 Q 39.229046,9.5485592 38.928782,9.4106002 V 8.2095454 h 0.133901 q 0.109556,0.077095 0.251573,0.17042 0.146074,0.089268 0.409819,0.1947656 0.227226,0.093325 0.515317,0.1623047 0.288091,0.064922 0.616758,0.064922 0.430108,0 0.637046,-0.093325 0.206939,-0.097383 0.206939,-0.2840332 0,-0.1663623 -0.121729,-0.2393995 Q 41.456678,8.108105 41.115838,8.0391255 40.953533,8.002607 40.673557,7.9620308 40.397639,7.917397 40.170413,7.8565327 39.549597,7.694228 39.249334,7.3533882 38.94907,7.0084907 38.94907,6.4972309 q 0,-0.657334 0.620815,-1.0914991 0.624874,-0.4382227 1.7042,-0.4382227 0.51126,0 0.977886,0.1054981 0.470683,0.1014404 0.734428,0.2191113 v 1.1523634 h -0.125786 q -0.324609,-0.223169 -0.742544,-0.361128 -0.413877,-0.1420166 -0.839927,-0.1420166 -0.353012,0 -0.596469,0.097383 -0.2394,0.097383 -0.2394,0.275918 0,0.1623047 0.109556,0.2475147 0.109556,0.08521 0.515317,0.1704199 0.223169,0.044634 0.478799,0.089268 0.259688,0.040576 0.519375,0.105498 0.576182,0.1501319 0.8521,0.4747413 0.275918,0.3205518 0.275918,0.8034076 z M 51.491164,7.641479 h -3.343477 q 0.03246,0.5356055 0.405762,0.8196387 0.377359,0.2840332 1.10773,0.2840332 0.462568,0 0.896733,-0.1663623 0.434165,-0.1663623 0.685738,-0.3570703 h 0.162304 v 1.1726514 q -0.495029,0.1988233 -0.933252,0.2880909 -0.438222,0.089268 -0.96977,0.089268 -1.371475,0 -2.101846,-0.6167578 -0.730371,-0.6167578 -0.730371,-1.7569483 0,-1.1280177 0.689795,-1.7853517 0.693852,-0.6613916 1.898965,-0.6613916 1.111787,0 1.671738,0.5640088 0.559951,0.5599512 0.559951,1.6149317 z M 50.038537,6.7853217 Q 50.026364,6.326811 49.811311,6.0955268 49.596257,5.8642426 49.141804,5.8642426 q -0.421992,0 -0.693853,0.2191113 -0.27186,0.2191114 -0.304321,0.7019678 z M 57.110965,5.0932953 55.354016,9.6499996 H 53.698509 L 51.953733,5.0932953 h 1.545952 l 1.054981,3.1324806 1.042807,-3.1324806 z m 5.299248,2.5481837 h -3.343477 q 0.03246,0.5356055 0.405762,0.8196387 0.377358,0.2840332 1.107729,0.2840332 0.462568,0 0.896734,-0.1663623 0.434165,-0.1663623 0.685737,-0.3570703 h 0.162305 v 1.1726514 q -0.49503,0.1988233 -0.933252,0.2880909 -0.438223,0.089268 -0.969771,0.089268 -1.371475,0 -2.101846,-0.6167578 -0.730371,-0.6167578 -0.730371,-1.7569483 0,-1.1280177 0.689795,-1.7853517 0.693853,-0.6613916 1.898965,-0.6613916 1.111787,0 1.671738,0.5640088 0.559952,0.5599512 0.559952,1.6149317 z M 60.957585,6.7853217 Q 60.945413,6.326811 60.730359,6.0955268 60.515305,5.8642426 60.060852,5.8642426 q -0.421992,0 -0.693853,0.2191113 -0.27186,0.2191114 -0.304321,0.7019678 z M 68.01784,9.6499996 H 66.548983 V 7.3899067 q 0,-0.275918 -0.0284,-0.5477783 -0.0284,-0.275918 -0.09738,-0.4057618 -0.08115,-0.1501318 -0.2394,-0.2191113 -0.154189,-0.068979 -0.434165,-0.068979 -0.198823,0 -0.405762,0.064922 -0.20288,0.064922 -0.44228,0.2069385 V 9.6499996 H 63.440848 V 5.0932953 h 1.460742 v 0.5031445 q 0.389531,-0.3043213 0.746602,-0.466626 0.361128,-0.1623047 0.79935,-0.1623047 0.738487,0 1.152364,0.4301075 0.417934,0.4301074 0.417934,1.2862647 z m 4.256444,-0.040576 q -0.235342,0.060864 -0.499087,0.093325 -0.263745,0.036519 -0.645161,0.036519 -0.8521,0 -1.270034,-0.3448975 -0.413877,-0.3448979 -0.413877,-1.180767 V 6.0833539 H 68.845597 V 5.0932953 h 0.600528 V 3.7908001 h 1.460742 v 1.3024952 h 1.367417 v 0.9900586 h -1.367417 v 1.6149318 q 0,0.2393994 0.0041,0.4179345 0.0041,0.1785352 0.06492,0.3205518 0.05681,0.1420166 0.198824,0.2272266 0.146074,0.081152 0.421992,0.081152 0.113613,0 0.296206,-0.048691 0.18665,-0.048691 0.259687,-0.089268 h 0.121729 z m 5.530527,-2.2357471 q 0,1.12396 -0.657334,1.7731788 -0.653277,0.6451611 -1.838101,0.6451611 -1.184824,0 -1.842158,-0.6451611 -0.653277,-0.6492188 -0.653277,-1.7731788 0,-1.1320753 0.657334,-1.7772365 0.661392,-0.6451611 1.838101,-0.6451611 1.19294,0 1.842158,0.6492188 0.653277,0.6492187 0.653277,1.7731788 z M 76.007286,8.481406 q 0.142017,-0.1744775 0.210996,-0.4179346 0.07304,-0.2475146 0.07304,-0.6816797 0,-0.4017041 -0.07304,-0.6735645 -0.07304,-0.2718604 -0.202881,-0.4341651 -0.129843,-0.1663623 -0.312436,-0.2353418 -0.182593,-0.06898 -0.393589,-0.06898 -0.210996,0 -0.377358,0.056807 -0.162305,0.056807 -0.312437,0.2272266 -0.133901,0.158247 -0.215054,0.434165 -0.07709,0.275918 -0.07709,0.6938526 0,0.3733008 0.06898,0.6492188 0.06898,0.2718603 0.202881,0.4382227 0.129844,0.158247 0.308379,0.2312841 0.182593,0.073037 0.413877,0.073037 0.198823,0 0.377358,-0.064922 0.182593,-0.06898 0.308379,-0.2272266 z M 82.81191,8.205488 q 0,0.7060255 -0.632988,1.1401905 -0.632989,0.4301075 -1.732603,0.4301075 -0.608643,0 -1.103672,-0.1136133 Q 78.847618,9.5485592 78.547354,9.4106002 V 8.2095454 h 0.133902 q 0.109555,0.077095 0.251572,0.17042 0.146074,0.089268 0.409819,0.1947656 0.227227,0.093325 0.515318,0.1623047 0.28809,0.064922 0.616757,0.064922 0.430108,0 0.637046,-0.093325 0.206939,-0.097383 0.206939,-0.2840332 0,-0.1663623 -0.121729,-0.2393995 Q 81.07525,8.108105 80.73441,8.0391255 80.572105,8.002607 80.29213,7.9620308 80.016212,7.917397 79.788985,7.8565327 79.16817,7.694228 78.867906,7.3533882 78.567642,7.0084907 78.567642,6.4972309 q 0,-0.657334 0.620816,-1.0914991 0.624873,-0.4382227 1.704199,-0.4382227 0.51126,0 0.977886,0.1054981 0.470683,0.1014404 0.734429,0.2191113 v 1.1523634 h -0.125787 q -0.324609,-0.223169 -0.742544,-0.361128 -0.413877,-0.1420166 -0.839926,-0.1420166 -0.353013,0 -0.59647,0.097383 -0.2394,0.097383 -0.2394,0.275918 0,0.1623047 0.109556,0.2475147 0.109556,0.08521 0.515318,0.1704199 0.223168,0.044634 0.478798,0.089268 0.259688,0.040576 0.519375,0.105498 0.576182,0.1501319 0.8521,0.4747413 0.275918,0.3205518 0.275918,0.8034078 z m 6.569285,0.2556299 V 7.5116353 q -0.296206,0.024346 -0.641103,0.068979 -0.344898,0.040576 -0.523433,0.097383 -0.219111,0.068979 -0.336782,0.2028808 -0.113613,0.1298438 -0.113613,0.3448975 0,0.1420166 0.02434,0.2312842 0.02435,0.089268 0.121729,0.1704199 0.09332,0.081152 0.223169,0.1217286 0.129843,0.036519 0.405761,0.036519 0.219112,0 0.442281,-0.089268 0.227226,-0.089268 0.397646,-0.2353418 z m 0,0.7060254 q -0.117671,0.089268 -0.292148,0.2150538 -0.174478,0.1257861 -0.328667,0.1988232 -0.215054,0.097383 -0.446338,0.1420166 -0.231284,0.048691 -0.507202,0.048691 -0.649219,0 -1.087442,-0.4017041 -0.438222,-0.4017041 -0.438222,-1.0265772 0,-0.4990869 0.223169,-0.8155811 0.223168,-0.3164941 0.632988,-0.4990869 0.405762,-0.1825928 1.006289,-0.2596875 0.600527,-0.077095 1.245688,-0.1136133 v -0.024346 q 0,-0.3773584 -0.308378,-0.519375 -0.308379,-0.1460743 -0.908907,-0.1460743 -0.361128,0 -0.770947,0.1298438 -0.409819,0.1257861 -0.588355,0.1947656 H 86.678822 V 5.1906781 q 0.231284,-0.060864 0.750659,-0.1420166 0.523433,-0.08521 1.046866,-0.08521 1.245688,0 1.797524,0.3854737 0.555894,0.381416 0.555894,1.2010547 v 3.1000197 h -1.44857 z m 7.222558,2.1545947 H 95.143011 V 9.2036617 q -0.357071,0.2880908 -0.69791,0.4301074 -0.34084,0.1420167 -0.76689,0.1420167 -0.835869,0 -1.334956,-0.6411036 -0.49503,-0.6411035 -0.49503,-1.728545 0,-0.5802393 0.166363,-1.0265772 0.17042,-0.4503955 0.462568,-0.7709473 0.275918,-0.3043213 0.669507,-0.4706836 0.393589,-0.17042 0.787178,-0.17042 0.385473,0 0.645161,0.089268 0.263745,0.08521 0.555894,0.2393995 l 0.05275,-0.2028809 h 1.416108 z M 95.143011,8.3921382 V 6.156391 q -0.15419,-0.064922 -0.32461,-0.093325 -0.17042,-0.028403 -0.312436,-0.028403 -0.576182,0 -0.864273,0.361128 -0.288091,0.3570703 -0.288091,0.9941162 0,0.6695069 0.231285,0.9738282 0.231284,0.3002637 0.742544,0.3002637 0.198823,0 0.421992,-0.073037 0.223169,-0.077095 0.393589,-0.1988239 z m 7.380809,1.2578614 h -1.46074 V 9.1468551 q -0.40577,0.3083789 -0.74255,0.4706836 -0.336781,0.1582471 -0.803407,0.1582471 -0.754717,0 -1.164536,-0.4341651 Q 97.946825,8.9074556 97.946825,8.0594136 V 5.0932953 h 1.468857 v 2.2600929 q 0,0.3448975 0.02029,0.5761816 0.02435,0.2272266 0.105498,0.3773585 0.07709,0.1501318 0.231284,0.2191113 0.158247,0.068979 0.438226,0.068979 0.18665,0 0.41387,-0.068979 0.22723,-0.06898 0.43823,-0.2028809 V 5.0932953 h 1.46074 z m 2.84033,0 h -1.46074 V 5.0932953 h 1.46074 z m 0.0406,-5.2059231 h -1.5419 V 3.336347 h 1.5419 z m 3.169,-0.8358692 -0.18665,4.3010745 h -1.32279 l -0.18665,-4.3010745 z m -0.0284,6.0417923 h -1.63927 v -1.071211 h 1.63927 z"
       id="path27" />
  </g>
  <g
     class="cls-9"
     id="g25"
     transform="translate(2.5344288,2.1000266)">
    <path
       class="cls-11"
       d="m 155.69,49.77 c -0.73,0.66 -0.75,1.79 -0.07,2.47 l -1.23,-1.23 c -0.63,-0.63 -1.75,-0.73 -2.41,-0.13 -0.73,0.66 -0.75,1.79 -0.07,2.47 -0.67,-0.67 -1.75,-0.67 -2.41,0 -0.67,0.67 -0.67,1.75 0,2.41 l -4.74,-4.74 c -0.63,-0.63 -1.75,-0.73 -2.41,-0.13 -0.73,0.66 -0.75,1.79 -0.07,2.47 l 8.85,8.85 c 0,0 -3.28,-0.99 -4.57,-1.15 -1.87,-0.22 -2.95,1.88 -0.74,3.01 2.78,1.42 6.37,3.08 9.08,3.86 0.46,0.13 0.88,0.25 1.26,0.35 1.35,0.36 2.59,1.07 3.58,2.07 v 0 l 7.39,-7.39 -0.36,-0.36 c -0.76,-0.76 -1.36,-1.67 -1.76,-2.68 -0.77,-1.97 -2.32,-5.44 -4.24,-7.37 l -2.67,-2.67 c -0.63,-0.63 -1.75,-0.73 -2.41,-0.13 z"
       id="path23"
       style="fill:url(#linear-gradient)" />
    <line
       class="cls-10"
       x1="149.5"
       y1="55.77"
       x2="151.73"
       y2="58"
       id="line23" />
    <line
       class="cls-10"
       x1="151.91"
       y1="53.360001"
       x2="154.14"
       y2="55.59"
       id="line24" />
    <line
       class="cls-10"
       x1="155.58"
       y1="52.200001"
       x2="156.55"
       y2="53.18"
       id="line25" />
  </g>
</svg>
