<?xml version="1.0" encoding="UTF-8"?>
<svg id="Capa_1" data-name="Capa 1" xmlns="http://www.w3.org/2000/svg" version="1.1" xmlns:xlink="http://www.w3.org/1999/xlink" viewBox="0 0 170 100" width="170px" height="100px">
  <defs>
    <style>
      .cls-1 {
        font-size: 11.16px;
      }

      .cls-2 {
        opacity: .6;
      }

      .cls-2, .cls-3, .cls-4, .cls-5, .cls-6, .cls-7, .cls-8 {
        stroke-width: 0px;
      }

      .cls-2, .cls-5 {
        fill: #ffef51;
      }

      .cls-9 {
        filter: url(#drop-shadow-1);
      }

      .cls-10 {
        fill: none;
      }

      .cls-10, .cls-11 {
        stroke: #4d4d4d;
        stroke-linecap: round;
        stroke-linejoin: round;
      }

      .cls-3 {
        fill: #f3bd36;
      }

      .cls-4 {
        fill: #eb691d;
      }

      .cls-11 {
        fill: url(#linear-gradient);
      }

      .cls-12 {
        font-size: 8.31px;
      }

      .cls-13 {
        font-size: 9.82px;
      }

      .cls-14 {
        fill: #d34600;
        font-family: Montserrat-ExtraBold, Montserrat;
        font-weight: 700;
      }

      .cls-6 {
        fill: #c9c5bd;
      }

      .cls-7 {
        fill: #e0682b;
      }

      .cls-8 {
        fill: #6b1c26;
      }
    </style>
    <filter id="drop-shadow-1" filterUnits="userSpaceOnUse">
      <feOffset dx="0" dy="0"/>
      <feGaussianBlur result="blur" stdDeviation="2"/>
      <feFlood flood-color="#000" flood-opacity=".2"/>
      <feComposite in2="blur" operator="in"/>
      <feComposite in="SourceGraphic"/>
    </filter>
    <linearGradient id="linear-gradient" x1="-113.64" y1="163.08" x2="-102.74" y2="189.33" gradientTransform="translate(105.3 -143.32) rotate(-45)" gradientUnits="userSpaceOnUse">
      <stop offset="0" stop-color="#fff"/>
      <stop offset=".33" stop-color="#f5f6f6"/>
      <stop offset="1" stop-color="#e6e7e8"/>
    </linearGradient>
  </defs>
  <g>
    <rect class="cls-6" x="9.02" y="31.3" width="151.57" height="39.62" rx="19.81" ry="19.81"/>
    <g>
      <path class="cls-3" d="M144.19,67.51H32.24c-10.94,0-19.81-8.87-19.81-19.81h0c0-10.94,8.87-19.81,19.81-19.81h111.95c10.94,0,19.81,8.87,19.81,19.81h0c0,10.94-8.87,19.81-19.81,19.81Z"/>
      <path class="cls-5" d="M32.24,66.17c-10.19,0-18.47-8.29-18.47-18.47s8.29-18.47,18.47-18.47h111.95c10.19,0,18.47,8.29,18.47,18.47s-8.29,18.47-18.47,18.47H32.24Z"/>
      <path class="cls-4" d="M32.24,64.84c-9.45,0-17.14-7.69-17.14-17.14s7.69-17.14,17.14-17.14h111.95c9.45,0,17.14,7.69,17.14,17.14s-7.69,17.14-17.14,17.14H32.24Z"/>
      <path class="cls-7" d="M32.24,63.5c-8.71,0-15.8-7.09-15.8-15.8s7.09-15.8,15.8-15.8h111.95c8.71,0,15.8,7.09,15.8,15.8s-7.09,15.8-15.8,15.8H32.24Z"/>
      <path class="cls-3" d="M159.99,47.7v.11c-.06,8.66-7.12,15.69-15.8,15.69H32.24c-8.68,0-15.74-7.03-15.8-15.69v-.11c0-8.71,7.09-15.8,15.8-15.8h111.95c8.72,0,15.8,7.09,15.8,15.8Z"/>
      <path class="cls-2" d="M159.99,47.7v.11c-.61.08-1.24.11-1.88.11H18.32c-.64,0-1.26-.04-1.88-.11v-.11c0-8.71,7.09-15.8,15.8-15.8h111.95c8.72,0,15.8,7.09,15.8,15.8Z"/>
      <path class="cls-3" d="M143.17,62.03c-7.91,0-14.34-6.43-14.34-14.34s6.43-14.34,14.34-14.34,14.34,6.43,14.34,14.34-6.43,14.34-14.34,14.34Z"/>
      <path class="cls-4" d="M143.17,60.7c-7.17,0-13-5.83-13-13s5.83-13,13-13,13,5.83,13,13-5.83,13-13,13Z"/>
      <g>
        <g>
          <path class="cls-8" d="M149.38,48.05c0,.34-.15.67-.41.91l-4.93,4.44c-.37.33-.93.3-1.26-.06-.33-.36-.3-.93.07-1.26l4.47-4.03-4.47-4.03c-.37-.33-.39-.89-.07-1.26.33-.37.89-.39,1.26-.07l4.92,4.44c.26.23.41.56.41.91Z"/>
          <path class="cls-8" d="M143.96,48.05c0,.34-.15.67-.41.91l-4.93,4.44c-.37.33-.93.3-1.26-.07-.33-.36-.3-.93.07-1.26l4.47-4.03-4.47-4.03c-.37-.33-.39-.89-.07-1.26.33-.37.89-.39,1.26-.06l4.92,4.44c.26.23.41.56.41.91Z"/>
        </g>
        <g>
          <path class="cls-7" d="M150.09,47.34c0,.34-.15.67-.41.91l-4.93,4.44c-.37.33-.93.3-1.26-.06-.33-.36-.3-.93.07-1.26l4.47-4.03-4.47-4.03c-.37-.33-.39-.89-.07-1.26.33-.37.89-.39,1.26-.07l4.92,4.44c.26.23.41.56.41.91Z"/>
          <path class="cls-7" d="M144.67,47.34c0,.34-.15.67-.41.91l-4.93,4.44c-.37.33-.93.3-1.26-.07-.33-.36-.3-.93.07-1.26l4.47-4.03-4.47-4.03c-.37-.33-.39-.89-.07-1.26.33-.37.89-.39,1.26-.06l4.92,4.44c.26.23.41.56.41.91Z"/>
        </g>
        <g>
          <path class="cls-3" d="M149.73,47.7c0,.34-.15.67-.41.91l-4.93,4.44c-.37.33-.93.3-1.26-.06-.33-.36-.3-.93.07-1.26l4.47-4.03-4.47-4.03c-.37-.33-.39-.89-.07-1.26.33-.37.89-.39,1.26-.07l4.92,4.44c.26.23.41.56.41.91Z"/>
          <path class="cls-3" d="M144.32,47.7c0,.34-.15.67-.41.91l-4.93,4.44c-.37.33-.93.3-1.26-.07-.33-.36-.3-.93.07-1.26l4.47-4.03-4.47-4.03c-.37-.33-.39-.89-.07-1.26.33-.37.89-.39,1.26-.06l4.92,4.44c.26.23.41.56.41.91Z"/>
        </g>
      </g>
    </g>
  </g>
  <text class="cls-14" transform="translate(21.93 46.4)"><tspan class="cls-1"><tspan x="0" y="0">¡Conoce nuestros</tspan></tspan><tspan class="cls-12" x="0" y="9.65">próximos eventos aqui!</tspan><tspan class="cls-13" x="103.63" y="9.65"> </tspan></text>
  <g class="cls-9">
    <path class="cls-11" d="M155.69,49.77c-.73.66-.75,1.79-.07,2.47l-1.23-1.23c-.63-.63-1.75-.73-2.41-.13-.73.66-.75,1.79-.07,2.47-.67-.67-1.75-.67-2.41,0-.67.67-.67,1.75,0,2.41l-4.74-4.74c-.63-.63-1.75-.73-2.41-.13-.73.66-.75,1.79-.07,2.47l8.85,8.85s-3.28-.99-4.57-1.15c-1.87-.22-2.95,1.88-.74,3.01,2.78,1.42,6.37,3.08,9.08,3.86.46.13.88.25,1.26.35,1.35.36,2.59,1.07,3.58,2.07h0l7.39-7.39-.36-.36c-.76-.76-1.36-1.67-1.76-2.68-.77-1.97-2.32-5.44-4.24-7.37l-2.67-2.67c-.63-.63-1.75-.73-2.41-.13Z"/>
    <line class="cls-10" x1="149.5" y1="55.77" x2="151.73" y2="58"/>
    <line class="cls-10" x1="151.91" y1="53.36" x2="154.14" y2="55.59"/>
    <line class="cls-10" x1="155.58" y1="52.2" x2="156.55" y2="53.18"/>
  </g>
</svg>