<?xml version="1.0" encoding="UTF-8"?>
<svg xmlns="http://www.w3.org/2000/svg" version="1.1" xmlns:xlink="http://www.w3.org/1999/xlink" viewBox="0 0 520 220">
  <defs>
    <style>
      .cls-1 {
        fill: #ccc;
      }

      .cls-1, .cls-2, .cls-3, .cls-4, .cls-5, .cls-6, .cls-7, .cls-8, .cls-9, .cls-10, .cls-11, .cls-12, .cls-13, .cls-14, .cls-15, .cls-16, .cls-17, .cls-18, .cls-19 {
        stroke-width: 0px;
      }

      .cls-2 {
        fill: url(#Degradado_sin_nombre_12);
      }

      .cls-3 {
        fill: url(#linear-gradient);
      }

      .cls-4 {
        fill: #fe6902;
      }

      .cls-5 {
        fill: url(#Degradado_sin_nombre_13);
      }

      .cls-6 {
        fill: #757372;
      }

      .cls-7 {
        fill: #8f8f8f;
      }

      .cls-8 {
        fill: #fab800;
      }

      .cls-9 {
        fill: #7a7776;
      }

      .cls-10 {
        fill: #5b899e;
      }

      .cls-11 {
        fill: #eb691d;
      }

      .cls-12 {
        fill: url(#linear-gradient-2);
      }

      .cls-13 {
        fill: #e74517;
      }

      .cls-14 {
        fill: #714c68;
      }

      .cls-15 {
        fill: #3b9fd9;
      }

      .cls-16 {
        fill: #fff;
      }

      .cls-17 {
        fill: url(#Degradado_sin_nombre_10);
      }

      .cls-18 {
        fill: #83b627;
      }

      .cls-19 {
        fill: url(#Degradado_sin_nombre_13-2);
      }
    </style>
    <linearGradient id="Degradado_sin_nombre_10" data-name="Degradado sin nombre 10" x1="137.43" y1="58.71" x2="84.23" y2="70.48" gradientUnits="userSpaceOnUse">
      <stop offset="0" stop-color="#eb691c"/>
      <stop offset=".13" stop-color="#ef7e19"/>
      <stop offset=".37" stop-color="#f59d16"/>
      <stop offset=".59" stop-color="#f9b314"/>
      <stop offset=".81" stop-color="#fcc113"/>
      <stop offset="1" stop-color="#fdc613"/>
    </linearGradient>
    <linearGradient id="linear-gradient" x1="46.38" y1="46.43" x2="104.17" y2="46.43" gradientUnits="userSpaceOnUse">
      <stop offset="0" stop-color="#eb691c"/>
      <stop offset="1" stop-color="#fdc613"/>
    </linearGradient>
    <linearGradient id="Degradado_sin_nombre_13" data-name="Degradado sin nombre 13" x1="35.39" y1="95.75" x2="65.87" y2="42.95" gradientUnits="userSpaceOnUse">
      <stop offset="0" stop-color="#eb691c"/>
      <stop offset=".29" stop-color="#f28e18"/>
      <stop offset=".58" stop-color="#f8ac15"/>
      <stop offset=".83" stop-color="#fbbf13"/>
      <stop offset="1" stop-color="#fdc613"/>
    </linearGradient>
    <linearGradient id="Degradado_sin_nombre_12" data-name="Degradado sin nombre 12" x1="120.58" y1="65.76" x2="87.18" y2="55.57" gradientUnits="userSpaceOnUse">
      <stop offset="0" stop-color="#eb691c"/>
      <stop offset=".15" stop-color="#ee7b1a"/>
      <stop offset=".53" stop-color="#f6a416"/>
      <stop offset=".82" stop-color="#fbbc13"/>
      <stop offset="1" stop-color="#fdc613"/>
    </linearGradient>
    <linearGradient id="linear-gradient-2" x1="70.6" y1="28.97" x2="69.57" y2="51.26" xlink:href="#linear-gradient"/>
    <linearGradient id="Degradado_sin_nombre_13-2" data-name="Degradado sin nombre 13" x1="39.38" y1="80.16" x2="67.27" y2="73.89" xlink:href="#Degradado_sin_nombre_13"/>
  </defs>
  <g id="Capa_1" data-name="Capa 1">
    <g>
      <g>
        <g>
          <path class="cls-17" d="M138.79,64.88c0,16.83-13.65,30.48-30.48,30.48-8.45,0-16.09-3.44-21.6-8.99-.03-.03-.06-.05-.09-.09-.82-.83-1.59-1.71-2.31-2.63,1.13-.34,2.22-.73,3.3-1.18.21-.08.41-.16.61-.26,12.93-5.61,21.97-18.49,21.97-33.49,0-5.07-1.03-9.91-2.91-14.3.34-.02.69-.02,1.03-.02,16.83,0,30.48,13.65,30.48,30.48Z"/>
          <path class="cls-3" d="M104.17,48.73c0,10.92-5.74,20.5-14.38,25.89.12-1.19.18-2.39.18-3.61,0-8.36-2.81-16.06-7.54-22.21-1.27-1.65-2.66-3.18-4.19-4.59-6.51-6.01-15.21-9.69-24.77-9.69-2.43,0-4.81.24-7.1.69,4.98-10.04,15.34-16.95,27.31-16.95,9.75,0,18.43,4.58,24.01,11.7,1.29,1.64,2.42,3.42,3.35,5.32,2,4.05,3.12,8.62,3.12,13.45Z"/>
          <path class="cls-5" d="M83.63,66.58c-1.53-2.1-3.41-3.92-5.57-5.37-1.73-1.17-3.64-2.09-5.68-2.73-2.07-.65-4.28-1-6.56-1-7.03,0-13.28,3.3-17.31,8.42-1.35,1.72-2.45,3.64-3.24,5.71-.94,2.44-1.45,5.09-1.45,7.86,0,10.18,6.93,18.76,16.33,21.26-1.28.29-2.59.49-3.92.61-.91.09-1.83.13-2.76.13s-1.86-.04-2.76-.13c-15.54-1.39-27.72-14.45-27.72-30.35,0-10.92,5.74-20.5,14.38-25.88,2.04-1.27,4.25-2.31,6.57-3.07,3-.99,6.2-1.52,9.53-1.52,8.49,0,16.17,3.47,21.69,9.07,1.63,1.65,3.07,3.48,4.29,5.46,2.12,3.45,3.57,7.35,4.17,11.53Z"/>
        </g>
        <path class="cls-2" d="M123.11,47.31c0,20.15-16.34,36.49-36.49,36.49-.75,0-1.5-.02-2.24-.07-.02-.03-.04-.05-.07-.08,1.13-.34,2.22-.73,3.3-1.18.21-.08.41-.16.61-.26,12.93-5.61,21.97-18.49,21.97-33.49,0-5.07-1.03-9.91-2.91-14.3.34-.02.69-.02,1.03-.02,4.84,0,9.42,1.13,13.48,3.13.86,3.11,1.33,6.39,1.33,9.78Z"/>
        <path class="cls-12" d="M89.8,74.61c.12-1.17.18-2.37.18-3.58,0-8.36-2.81-16.06-7.54-22.21-1.27-1.65-2.66-3.18-4.19-4.59-6.51-6.01-15.21-9.69-24.77-9.69-.35,0-.69,0-1.04.02-2.07.05-4.09.29-6.06.68,2.49-5.02,6.34-9.27,11.05-12.25,19.76.44,35.65,16.6,35.65,36.48,0,5.41-1.17,10.54-3.29,15.15Z"/>
        <path class="cls-19" d="M83.57,66.52c-1.52-2.08-3.39-3.87-5.53-5.3-1.73-1.17-3.64-2.09-5.68-2.73-2.07-.65-4.28-1-6.56-1-4.77,0-9.19,1.52-12.79,4.11-1.7,1.22-3.22,2.67-4.51,4.31-1.35,1.72-2.45,3.64-3.24,5.71-.94,2.44-1.45,5.09-1.45,7.86,0,6.28,2.64,11.95,6.87,15.96,2.62,2.49,5.85,4.34,9.45,5.29-1.28.29-2.59.49-3.92.61-.91.09-1.83.13-2.76.13s-1.86-.04-2.76-.13c-1.28-.12-2.54-.31-3.77-.58-8.26-4.47-13.87-13.22-13.87-23.27,0-14.61,11.84-26.44,26.45-26.44,10.69,0,19.89,6.34,24.07,15.46Z"/>
      </g>
      <g>
        <polygon class="cls-11" points="192.98 42.54 188.55 64.75 175.12 42.54 165.67 42.54 157.55 83.13 168.8 83.13 173.24 60.86 186.66 83.13 196.11 83.13 204.23 42.54 192.98 42.54"/>
        <polygon class="cls-11" points="203.77 83.13 214.73 83.13 220.99 51.7 210.03 51.7 203.77 83.13"/>
        <path class="cls-11" d="M217.05,48.22c2.13,0,3.85-.6,5.16-1.8,1.31-1.2,1.97-2.74,1.97-4.64,0-1.51-.58-2.76-1.74-3.77-1.16-1-2.71-1.51-4.64-1.51-2.13,0-3.84.6-5.13,1.8-1.3,1.2-1.94,2.69-1.94,4.47,0,1.51.57,2.79,1.71,3.86,1.14,1.06,2.68,1.59,4.61,1.59Z"/>
        <path class="cls-11" d="M274.8,52.83c-1.82-1.1-3.98-1.65-6.49-1.65-3.02,0-5.7.72-8.06,2.15-1.29.78-2.44,1.76-3.46,2.92-.18-.34-.38-.67-.6-.98-1.01-1.37-2.27-2.4-3.8-3.07-1.53-.68-3.22-1.02-5.07-1.02-2.28,0-4.47.55-6.58,1.65-1.02.54-1.97,1.22-2.83,2.04l.65-3.17h-10.44l-6.26,31.43h11.02l3.13-15.72c.5-2.44,1.33-4.19,2.49-5.28s2.57-1.62,4.23-1.62c1.55,0,2.66.53,3.33,1.59.68,1.06.8,2.66.38,4.78l-3.31,16.24h11.02l3.19-15.83c.5-2.4,1.32-4.13,2.46-5.19,1.14-1.06,2.54-1.59,4.2-1.59,1.55,0,2.66.53,3.33,1.59.68,1.06.8,2.66.38,4.78l-3.25,16.24h11.02l3.42-17.4c.66-3.21.59-5.89-.2-8.03-.79-2.14-2.1-3.77-3.91-4.87Z"/>
        <path class="cls-11" d="M314.09,52.86c-2.03-1.12-4.19-1.68-6.47-1.68-2.47,0-4.66.56-6.55,1.68-.64.38-1.23.82-1.81,1.29l2.79-14.05h-11.02l-8.58,43.03h10.5l.87-4.43c.97,1.72,2.32,2.97,4.06,3.77,1.74.79,3.73,1.19,5.97,1.19,2.36,0,4.56-.46,6.61-1.36,2.05-.91,3.86-2.18,5.42-3.83,1.57-1.64,2.79-3.57,3.68-5.77.89-2.2,1.33-4.62,1.33-7.25,0-3.05-.63-5.63-1.88-7.74-1.26-2.11-2.9-3.72-4.93-4.84ZM308.82,70.61c-.64,1.31-1.52,2.34-2.64,3.07-1.12.74-2.42,1.1-3.89,1.1-1.89,0-3.36-.54-4.41-1.62-1.04-1.08-1.57-2.53-1.57-4.35s.32-3.27.96-4.58c.64-1.31,1.53-2.35,2.67-3.1s2.43-1.13,3.86-1.13c1.89,0,3.36.55,4.41,1.65,1.05,1.1,1.57,2.56,1.57,4.38s-.32,3.27-.96,4.58Z"/>
        <path class="cls-11" d="M347.93,67.24c-.46,2.4-1.32,4.17-2.58,5.31-1.26,1.14-2.81,1.71-4.67,1.71-1.74,0-2.95-.54-3.62-1.62-.68-1.08-.8-2.63-.38-4.64l3.25-16.29h-11.02l-3.48,17.34c-.62,3.21-.54,5.9.23,8.06.77,2.17,2.1,3.8,3.97,4.9,1.87,1.1,4.09,1.65,6.64,1.65,2.32,0,4.57-.55,6.76-1.65,1.08-.55,2.09-1.25,3-2.11l-.66,3.24h10.44l6.26-31.43h-11.02l-3.13,15.54Z"/>
        <path class="cls-11" d="M382.84,44.68h-11.02l-1.63,8.18h-4.58l-1.68,8.23h4.62l-2.07,10.38c-.5,2.55-.39,4.75.35,6.58.74,1.84,1.97,3.23,3.71,4.18s3.83,1.42,6.26,1.42c1.47,0,2.91-.15,4.32-.43,1.41-.29,2.7-.76,3.86-1.42l-1.39-7.6c-.54.31-1.08.54-1.62.7-.54.16-1.1.23-1.68.23-1.12,0-1.91-.32-2.38-.96-.46-.64-.6-1.56-.41-2.76l2.06-10.32h7.16l1.62-8.23h-7.14l1.63-8.18Z"/>
        <path class="cls-11" d="M416.21,52.92c-2.3-1.16-5.05-1.74-8.26-1.74-3.79,0-7.11.79-9.97,2.38-2.86,1.59-5.08,3.74-6.67,6.47-1.59,2.73-2.38,5.83-2.38,9.31,0,2.9.7,5.42,2.09,7.57,1.39,2.15,3.33,3.81,5.83,4.99,2.49,1.18,5.42,1.77,8.79,1.77,2.36,0,4.69-.31,6.99-.93,2.3-.62,4.44-1.66,6.41-3.13l-4.58-6.9c-1.01.81-2.17,1.44-3.51,1.89-1.33.44-2.7.67-4.09.67-2.4,0-4.19-.51-5.39-1.54-.96-.82-1.53-2.01-1.72-3.57h23.06c.19-.81.35-1.64.46-2.49.12-.85.17-1.74.17-2.67,0-2.74-.63-5.15-1.88-7.22-1.26-2.07-3.04-3.68-5.34-4.84ZM403.05,60.34c1.14-.89,2.6-1.33,4.38-1.33,1.39,0,2.56.28,3.51.84.95.56,1.62,1.35,2.03,2.38.24.62.34,1.33.33,2.12h-12.92c.04-.12.07-.25.12-.38.56-1.53,1.41-2.73,2.55-3.62Z"/>
        <path class="cls-11" d="M447.06,73.82c-1.14.64-2.43.96-3.86.96-2.01,0-3.54-.56-4.58-1.68-1.04-1.12-1.57-2.59-1.57-4.41s.33-3.25.99-4.52c.66-1.28,1.57-2.29,2.75-3.04,1.18-.75,2.5-1.13,3.97-1.13,1.35,0,2.56.33,3.62.99,1.06.66,1.88,1.72,2.46,3.19l9.39-4.47c-1.16-2.67-3.04-4.75-5.65-6.26-2.61-1.51-5.69-2.26-9.25-2.26-3.79,0-7.15.79-10.09,2.38-2.94,1.59-5.24,3.74-6.9,6.47-1.66,2.73-2.49,5.83-2.49,9.31,0,2.86.68,5.36,2.06,7.51,1.37,2.15,3.29,3.82,5.77,5.02,2.47,1.2,5.39,1.8,8.76,1.8s6.52-.71,9.25-2.15c2.73-1.43,4.84-3.42,6.35-5.97l-8.06-4.87c-.81,1.47-1.79,2.52-2.93,3.16Z"/>
        <path class="cls-11" d="M496.33,57.7c-.81-2.14-2.16-3.77-4.03-4.87-1.88-1.1-4.11-1.65-6.7-1.65-2.32,0-4.59.54-6.81,1.62-.83.4-1.61.9-2.33,1.48l2.83-14.18h-11.02l-8.58,43.03h11.02l3.13-15.54c.5-2.4,1.39-4.17,2.67-5.34,1.28-1.16,2.84-1.74,4.7-1.74s3.06.54,3.74,1.62.8,2.63.38,4.64l-3.25,16.35h11.02l3.48-17.4c.66-3.21.58-5.89-.23-8.03Z"/>
      </g>
    </g>
  </g>
  <g id="Capa_2" data-name="Capa 2">
    <g>
      <g>
        <polyline class="cls-9" points="66.77 143.74 66.77 153.87 64.99 153.87 64.99 145.93 64.96 145.93 61.78 153.87 60.6 153.87 57.33 145.93 57.31 145.93 57.31 153.87 55.66 153.87 55.66 143.74 58.22 143.74 61.17 151.25 61.21 151.25 64.32 143.74 66.77 143.74"/>
        <path class="cls-9" d="M70.17,153.87h-1.73v-7.26h1.73v7.26M68.26,144.51c0-.27.11-.53.31-.71.2-.19.47-.29.74-.29.28,0,.55.1.76.29.19.18.3.44.3.7,0,.27-.11.52-.31.7-.2.19-.47.29-.75.28-.28,0-.55-.1-.75-.29-.2-.18-.31-.43-.3-.7"/>
        <path class="cls-9" d="M75.39,152.63c.29,0,.58-.07.85-.18.31-.12.6-.27.86-.47v1.59c-.29.16-.61.28-.94.35-.38.08-.77.12-1.16.12-.98.04-1.94-.33-2.64-1.01-.68-.69-1.05-1.62-1.02-2.59-.04-1.06.33-2.09,1.04-2.89.69-.76,1.67-1.14,2.94-1.14.33,0,.66.04.98.12.27.06.54.16.79.29v1.64c-.25-.18-.53-.34-.82-.45-.27-.1-.56-.16-.86-.16-.62-.03-1.22.21-1.65.66-.44.48-.66,1.12-.63,1.77-.04.63.18,1.25.61,1.72.44.42,1.03.65,1.64.61"/>
        <path class="cls-9" d="M82.03,146.49c.12,0,.25,0,.37.03.1.01.19.04.28.07v1.73c-.12-.08-.26-.14-.4-.19-.2-.06-.42-.09-.63-.09-.42,0-.82.19-1.08.53-.33.48-.49,1.05-.44,1.63v3.67h-1.73v-7.26h1.73v1.14h.03c.14-.37.39-.7.72-.93.34-.23.74-.35,1.15-.34"/>
        <path class="cls-9" d="M84.59,150.29c-.04.62.14,1.24.52,1.74.38.42.93.64,1.5.6.55.04,1.08-.19,1.44-.6.36-.52.54-1.15.49-1.78.05-.63-.14-1.26-.51-1.77-.36-.41-.89-.63-1.43-.6-.56-.03-1.11.2-1.48.63-.38.51-.57,1.15-.53,1.78M82.79,150.35c-.06-1.05.32-2.08,1.03-2.85.77-.73,1.8-1.11,2.86-1.05,1-.06,1.98.31,2.69,1.01.67.75,1.02,1.73.97,2.74.05,1.04-.32,2.05-1.03,2.81-.75.72-1.77,1.1-2.81,1.05-1,.05-1.98-.31-2.72-.99-.7-.73-1.06-1.71-1.01-2.71"/>
        <path class="cls-9" d="M92.92,148.52c-.01.22.08.43.24.58.32.23.67.4,1.04.53.55.18,1.05.5,1.46.92.28.35.43.79.42,1.24.02.65-.28,1.26-.8,1.65-.63.44-1.39.66-2.16.62-.34,0-.68-.04-1.01-.11-.32-.06-.64-.15-.94-.28v-1.68c.31.22.66.39,1.02.52.32.12.65.18.99.19.3.02.6-.04.87-.16.19-.11.3-.32.28-.54,0-.23-.11-.45-.29-.6-.34-.24-.71-.43-1.1-.56-.52-.18-.99-.49-1.36-.89-.28-.36-.42-.8-.4-1.26-.01-.63.28-1.23.79-1.61.59-.44,1.31-.67,2.05-.63.29,0,.58.03.87.08.27.04.54.12.8.22v1.63c-.25-.16-.52-.29-.8-.39-.29-.11-.6-.16-.91-.16-.27-.02-.54.05-.77.19-.18.11-.28.31-.28.52"/>
        <g>
          <path class="cls-9" d="M98.64,150.29c-.04.62.14,1.24.52,1.74.38.42.93.64,1.5.6.55.04,1.08-.19,1.44-.6.36-.52.54-1.15.49-1.78.05-.63-.14-1.26-.51-1.77-.36-.41-.89-.63-1.43-.6-.56-.03-1.11.2-1.48.63-.38.51-.57,1.15-.53,1.78M96.83,150.35c-.06-1.05.32-2.08,1.03-2.85.77-.73,1.8-1.11,2.86-1.05,1-.06,1.98.31,2.69,1.01.67.75,1.02,1.73.97,2.74.05,1.04-.32,2.05-1.03,2.81-.75.72-1.77,1.1-2.81,1.05-1,.05-1.98-.31-2.72-.99-.7-.73-1.06-1.71-1.01-2.71"/>
          <path class="cls-9" d="M108.45,142.99c.19,0,.37,0,.56.03.15.02.29.05.43.1v1.48c-.1-.05-.2-.09-.3-.12-.16-.05-.33-.07-.49-.07-.32-.02-.62.1-.84.34-.22.28-.32.64-.29.99v.88h1.64v1.4h-1.64v5.86h-1.75v-5.86h-1.23v-1.4h1.23v-1.01c-.02-.7.25-1.39.75-1.88.52-.49,1.22-.76,1.94-.73"/>
        </g>
        <path class="cls-9" d="M112.88,152.63c.12,0,.25-.03.36-.07.13-.04.25-.1.37-.17v1.41c-.17.08-.36.14-.55.17-.25.05-.5.08-.75.08-.6.05-1.2-.16-1.64-.58-.4-.49-.6-1.11-.55-1.73v-3.73h-1.21v-1.4h1.21v-1.63l1.74-.52v2.16h1.75v1.4h-1.75v3.4c-.03.33.06.67.25.95.21.2.49.3.78.28"/>
        <g>
          <path class="cls-9" d="M55.39,163.8v-1.09c.11.09.23.17.35.24.14.07.28.13.43.18.15.05.3.09.46.11.14.03.28.04.42.04.35.02.7-.05,1-.22.22-.14.34-.39.33-.64,0-.14-.04-.28-.11-.39-.08-.12-.19-.22-.31-.3-.15-.1-.3-.19-.47-.27-.18-.08-.37-.17-.57-.26-.22-.12-.42-.23-.61-.35-.18-.11-.34-.24-.49-.39-.14-.14-.25-.31-.33-.49-.08-.2-.12-.42-.12-.63,0-.27.06-.54.2-.78.14-.22.32-.41.54-.55.23-.15.49-.26.76-.32.29-.07.58-.1.87-.1.5-.03,1,.05,1.47.23v1.04c-.42-.28-.91-.41-1.41-.39-.16,0-.32.01-.47.04-.15.03-.29.08-.42.15-.12.06-.22.15-.3.26-.08.11-.12.25-.12.39,0,.13.03.26.09.37.07.11.16.21.26.28.13.1.27.18.42.25.17.08.36.17.58.27.22.12.44.24.64.36.19.12.37.26.53.42.15.15.27.32.36.51.09.2.14.42.13.64.03.55-.26,1.07-.73,1.36-.24.15-.5.25-.77.3-.3.06-.61.09-.92.09-.11,0-.24,0-.4-.02-.16-.02-.32-.04-.48-.07-.16-.03-.31-.07-.47-.11-.12-.03-.24-.09-.36-.15"/>
          <path class="cls-9" d="M62.49,160.22c-.37-.02-.73.14-.97.42-.25.33-.38.75-.36,1.16-.02.41.1.81.36,1.13.24.28.6.43.96.41.36.02.71-.13.95-.4.24-.33.36-.74.33-1.15.03-.41-.09-.82-.33-1.16-.23-.28-.58-.43-.95-.41M62.44,164.15c-1.21.08-2.25-.83-2.34-2.03,0-.1,0-.2,0-.29-.04-.66.2-1.31.66-1.79.49-.45,1.13-.68,1.79-.64.62-.04,1.23.19,1.68.63.42.48.64,1.1.6,1.74.09,1.24-.85,2.31-2.08,2.4-.1,0-.21,0-.31,0"/>
          <polyline class="cls-9" points="65.9 157.32 66.95 157.32 66.95 164.05 65.9 164.05 65.9 157.32"/>
          <path class="cls-9" d="M72.32,164.05h-1.04v-.72h-.02c-.27.53-.82.85-1.41.83-1.09,0-1.63-.65-1.63-1.94v-2.72h1.04v2.61c0,.82.32,1.23.96,1.23.29,0,.57-.12.76-.34.21-.25.31-.56.3-.88v-2.62h1.04v4.55"/>
          <path class="cls-9" d="M76.11,164c-.25.11-.53.16-.8.15-.89,0-1.34-.42-1.34-1.27v-2.57h-.77v-.81h.77v-1.05l1.04-.29v1.35h1.1v.81h-1.1v2.27c-.02.2.03.41.15.58.13.13.31.19.49.17.17,0,.33-.05.46-.15v.82"/>
          <path class="cls-9" d="M78.05,164.05h-1.04v-4.55h1.04v4.55M77.53,158.55c-.16,0-.32-.06-.44-.16-.12-.1-.19-.26-.18-.42,0-.16.06-.31.18-.42.12-.11.28-.17.44-.17.17,0,.33.06.45.17.12.11.19.26.18.42,0,.16-.07.31-.18.41-.12.11-.28.17-.45.17"/>
          <path class="cls-9" d="M81.5,160.22c-.37-.02-.73.14-.97.42-.25.33-.38.75-.36,1.16-.02.41.1.81.36,1.13.24.28.6.43.96.41.36.02.71-.13.95-.4.24-.33.36-.74.33-1.15.03-.41-.09-.82-.33-1.16-.23-.28-.58-.43-.95-.41M81.45,164.15c-1.21.08-2.25-.83-2.34-2.03,0-.1,0-.2,0-.29-.04-.66.2-1.31.66-1.79.49-.45,1.13-.68,1.79-.64.62-.04,1.23.19,1.68.63.42.48.64,1.1.6,1.74.09,1.24-.85,2.31-2.08,2.4-.1,0-.21,0-.31,0"/>
          <path class="cls-9" d="M89.01,164.05h-1.04v-2.56c0-.85-.3-1.27-.91-1.27-.3,0-.59.12-.79.35-.21.25-.32.57-.31.89v2.59h-1.05v-4.55h1.05v.75h.02c.3-.55.87-.88,1.49-.86.44-.03.86.15,1.15.48.29.4.43.9.4,1.39v2.78"/>
          <path class="cls-9" d="M90,163.91v-.95c.37.29.82.44,1.29.44.63,0,.94-.18.94-.55,0-.09-.03-.19-.08-.27-.06-.08-.13-.14-.22-.19-.1-.06-.21-.11-.32-.15-.12-.04-.26-.1-.42-.15-.17-.07-.35-.15-.51-.24-.14-.07-.27-.17-.38-.28-.1-.1-.18-.22-.23-.36-.05-.15-.08-.31-.08-.47,0-.2.05-.41.16-.58.11-.17.25-.31.42-.42.19-.12.39-.2.6-.26.23-.06.46-.09.7-.09.39,0,.78.06,1.14.19v.9c-.33-.22-.72-.34-1.12-.33-.12,0-.24.01-.36.04-.1.02-.19.06-.27.11-.07.04-.13.1-.18.17-.04.07-.06.14-.06.22,0,.09.02.17.06.25.05.07.11.14.19.18.09.06.19.1.3.14.12.04.25.09.4.14.18.07.36.15.53.24.15.08.28.17.4.28.11.1.2.23.26.36.06.16.09.32.09.49,0,.21-.05.42-.16.6-.11.17-.26.32-.43.43-.19.12-.4.2-.62.25-.24.06-.49.08-.74.08-.45.01-.9-.07-1.31-.25"/>
          <path class="cls-9" d="M97.97,158.55v2.33h.69c.38.03.75-.09,1.05-.32.25-.23.38-.55.36-.89,0-.75-.44-1.12-1.32-1.12h-.78M97.97,161.74v2.31h-1.07v-6.37h1.96c.62-.04,1.23.14,1.72.51.42.36.64.89.61,1.44.02.58-.21,1.13-.64,1.52-.48.41-1.1.62-1.73.59h-.86"/>
          <path class="cls-9" d="M104.43,161.81l-.97.13c-.24.02-.47.09-.68.22-.16.13-.25.34-.23.55,0,.18.07.35.21.47.16.13.36.19.56.18.3,0,.59-.11.79-.33.21-.23.32-.52.31-.83v-.39M105.44,164.05h-1.01v-.71h-.02c-.27.52-.81.83-1.4.82-.39.02-.77-.11-1.06-.36-.26-.25-.4-.6-.38-.96,0-.86.5-1.36,1.5-1.5l1.37-.19c0-.65-.31-.97-.94-.97-.55,0-1.07.2-1.48.56v-.9c.51-.29,1.09-.44,1.68-.43,1.16,0,1.74.57,1.74,1.7v2.96"/>
          <path class="cls-9" d="M109.38,160.48c-.16-.11-.35-.16-.54-.15-.31,0-.6.16-.77.41-.22.33-.33.72-.31,1.12v2.18h-1.04v-4.55h1.04v.94h.02c.08-.29.25-.55.47-.75.2-.17.45-.27.71-.27.15,0,.3.02.43.08v.98"/>
          <path class="cls-9" d="M112.81,164c-.25.11-.53.16-.8.15-.89,0-1.34-.42-1.34-1.27v-2.57h-.77v-.81h.77v-1.05l1.04-.29v1.35h1.1v.81h-1.1v2.27c-.02.2.03.41.15.58.13.13.31.19.49.17.17,0,.33-.05.46-.15v.82"/>
          <path class="cls-9" d="M117.81,164.05h-1.04v-2.56c0-.85-.3-1.27-.91-1.27-.3,0-.59.12-.79.35-.21.25-.32.57-.31.89v2.59h-1.05v-4.55h1.05v.75h.02c.3-.55.87-.88,1.49-.86.44-.03.86.15,1.15.48.29.4.43.9.4,1.39v2.78"/>
          <path class="cls-9" d="M121.79,161.33c.02-.31-.08-.62-.27-.86-.18-.21-.44-.32-.72-.31-.29,0-.57.11-.76.32-.22.23-.35.53-.38.85h2.13M122.8,162.06h-3.14c-.01.36.13.72.39.97.29.24.66.36,1.03.34.49,0,.96-.15,1.35-.44v.83c-.51.28-1.08.42-1.66.39-.6.03-1.18-.19-1.59-.62-.41-.48-.62-1.11-.58-1.74-.03-.64.2-1.26.64-1.73.41-.44.98-.68,1.58-.67.55-.03,1.09.19,1.46.6.37.47.55,1.07.52,1.67v.39"/>
        </g>
        <path class="cls-9" d="M126.46,160.48c-.16-.11-.35-.16-.54-.15-.31,0-.6.16-.77.41-.22.33-.33.72-.31,1.12v2.18h-1.04v-4.55h1.04v.94h.02c.08-.29.25-.55.47-.75.2-.17.45-.27.71-.27.15,0,.3.02.43.08v.98"/>
        <polyline class="cls-13" points="28.78 143.68 38.61 143.68 38.61 153.38 28.78 153.38 28.78 143.68"/>
        <polyline class="cls-18" points="39.63 143.68 49.46 143.68 49.46 153.38 39.63 153.38 39.63 143.68"/>
        <polyline class="cls-15" points="28.78 154.39 38.61 154.39 38.61 164.1 28.78 164.1 28.78 154.39"/>
        <polyline class="cls-8" points="39.63 154.39 49.46 154.39 49.46 164.1 39.63 164.1 39.63 154.39"/>
        <path class="cls-6" d="M36.71,181.5h-.8v-4.62c0-.37.02-.81.07-1.34h-.02c-.08.31-.15.53-.21.67l-2.36,5.3h-.39l-2.35-5.26c-.07-.15-.14-.39-.21-.71h-.02c.03.28.04.73.04,1.35v4.61h-.78v-6.89h1.07l2.11,4.81c.16.37.27.64.32.83h.03c.14-.38.25-.66.33-.85l2.16-4.79h1.01v6.89"/>
        <path class="cls-6" d="M40.46,181.62c-.73,0-1.31-.23-1.74-.69-.43-.46-.65-1.07-.65-1.83,0-.83.23-1.47.68-1.94.45-.46,1.06-.7,1.83-.7s1.31.23,1.72.68c.41.45.62,1.08.62,1.88s-.22,1.41-.67,1.89c-.44.47-1.04.71-1.79.71h0M40.52,177.13c-.51,0-.91.17-1.2.52-.29.34-.44.82-.44,1.43s.15,1.04.45,1.38.7.5,1.2.5.9-.17,1.18-.5.41-.8.41-1.41-.14-1.09-.41-1.42c-.27-.33-.67-.5-1.18-.5"/>
        <path class="cls-6" d="M48.36,181.5h-.79v-.84h-.02c-.37.63-.93.95-1.69.95-.62,0-1.11-.22-1.48-.66-.37-.44-.56-1.04-.56-1.8,0-.81.21-1.47.62-1.96s.96-.74,1.64-.74,1.17.27,1.48.8h.02v-3.05h.79v7.29h0M47.58,179.28v-.73c0-.4-.13-.73-.39-1.01s-.6-.41-1-.41c-.48,0-.86.18-1.13.53-.28.35-.41.84-.41,1.46,0,.57.13,1.02.4,1.34.26.33.62.49,1.06.49s.8-.16,1.07-.48.41-.72.41-1.2"/>
        <path class="cls-6" d="M53.91,179.24h-3.48c.01.55.16.97.44,1.27.28.3.67.45,1.16.45.55,0,1.06-.18,1.53-.55v.74c-.43.31-1,.47-1.72.47s-1.24-.22-1.64-.67c-.4-.45-.6-1.08-.6-1.89,0-.77.22-1.39.65-1.87.43-.48.97-.72,1.62-.72s1.14.21,1.49.62c.35.42.53,1,.53,1.74v.41h0M53.1,178.57c0-.46-.11-.81-.33-1.06-.22-.25-.52-.38-.9-.38s-.69.13-.95.4-.42.61-.48,1.04h2.66"/>
        <path class="cls-6" d="M57.66,177.38c-.14-.11-.34-.16-.6-.16-.34,0-.62.16-.84.48-.23.32-.34.75-.34,1.3v2.51h-.79v-4.92h.79v1.01h.02c.11-.35.28-.62.51-.81s.49-.29.77-.29c.21,0,.36.02.47.07v.82"/>
        <path class="cls-6" d="M62.59,181.5h-.79v-2.81c0-1.04-.38-1.57-1.14-1.57-.39,0-.72.15-.98.44s-.39.67-.39,1.12v2.81h-.79v-4.92h.79v.82h.02c.37-.62.91-.93,1.62-.93.54,0,.95.17,1.24.52.29.35.43.85.43,1.51v3.01"/>
        <path class="cls-6" d="M75.03,174.61l-1.95,6.89h-.95l-1.42-5.04c-.06-.21-.1-.45-.11-.7h-.02c-.02.24-.06.47-.12.69l-1.43,5.05h-.94l-2.02-6.89h.89l1.47,5.29c.06.22.1.45.12.69h.02c.02-.17.07-.4.15-.69l1.52-5.29h.77l1.46,5.33c.05.18.09.4.12.64h.02c.01-.17.06-.39.13-.66l1.41-5.31h.87"/>
        <path class="cls-6" d="M78.01,181.62c-.73,0-1.31-.23-1.74-.69s-.65-1.07-.65-1.83c0-.83.23-1.47.68-1.94.45-.46,1.06-.7,1.83-.7s1.31.23,1.72.68c.41.45.62,1.08.62,1.88s-.22,1.41-.67,1.89c-.44.47-1.04.71-1.79.71h0M78.07,177.13c-.51,0-.91.17-1.2.52-.29.34-.44.82-.44,1.43s.15,1.04.45,1.38.7.5,1.2.5.9-.17,1.18-.5.41-.8.41-1.41-.14-1.09-.41-1.42c-.27-.33-.67-.5-1.18-.5"/>
        <path class="cls-6" d="M84.28,177.38c-.14-.11-.34-.16-.6-.16-.34,0-.62.16-.84.48s-.34.75-.34,1.3v2.51h-.79v-4.92h.79v1.01h.02c.11-.35.28-.62.51-.81s.49-.29.77-.29c.21,0,.36.02.47.07v.82"/>
        <polyline class="cls-6" points="89.21 181.5 88.11 181.5 85.93 179.14 85.91 179.14 85.91 181.5 85.12 181.5 85.12 174.21 85.91 174.21 85.91 178.83 85.93 178.83 88 176.58 89.03 176.58 86.75 178.95 89.21 181.5"/>
        <path class="cls-6" d="M36.8,181.5h-.8v-4.62c0-.37.02-.81.07-1.34h-.02c-.08.31-.15.53-.21.67l-2.36,5.3h-.39l-2.35-5.26c-.07-.15-.14-.39-.21-.71h-.02c.03.28.04.73.04,1.35v4.61h-.78v-6.89h1.07l2.11,4.81c.16.37.27.64.32.83h.03c.14-.38.25-.66.33-.85l2.16-4.79h1.01v6.89"/>
        <path class="cls-6" d="M40.56,181.62c-.73,0-1.31-.23-1.74-.69-.43-.46-.65-1.07-.65-1.83,0-.83.23-1.47.68-1.94.45-.46,1.06-.7,1.83-.7s1.31.23,1.72.68c.41.45.62,1.08.62,1.88s-.22,1.41-.67,1.89c-.44.47-1.04.71-1.79.71h0M40.62,177.13c-.51,0-.91.17-1.2.52-.29.34-.44.82-.44,1.43s.15,1.04.45,1.38.7.5,1.2.5.9-.17,1.18-.5.41-.8.41-1.41-.14-1.09-.41-1.42c-.27-.33-.67-.5-1.18-.5"/>
        <path class="cls-6" d="M48.46,181.5h-.79v-.84h-.02c-.37.63-.93.95-1.69.95-.62,0-1.11-.22-1.48-.66-.37-.44-.56-1.04-.56-1.8,0-.81.21-1.47.62-1.96s.96-.74,1.64-.74,1.17.27,1.48.8h.02v-3.05h.79v7.29h0M47.67,179.28v-.73c0-.4-.13-.73-.39-1.01s-.6-.41-1-.41c-.48,0-.86.18-1.13.53-.28.35-.41.84-.41,1.46,0,.57.13,1.02.4,1.34.26.33.62.49,1.06.49s.8-.16,1.07-.48.41-.72.41-1.2"/>
        <path class="cls-6" d="M54.01,179.24h-3.48c.01.55.16.97.44,1.27.28.3.67.45,1.16.45.55,0,1.06-.18,1.53-.55v.74c-.43.31-1,.47-1.72.47s-1.24-.22-1.64-.67c-.4-.45-.6-1.08-.6-1.89,0-.77.22-1.39.65-1.87.43-.48.97-.72,1.62-.72s1.14.21,1.49.62c.35.42.53,1,.53,1.74v.41h0M53.2,178.57c0-.46-.11-.81-.33-1.06-.22-.25-.52-.38-.9-.38s-.69.13-.95.4-.42.61-.48,1.04h2.66"/>
        <path class="cls-6" d="M57.76,177.38c-.14-.11-.34-.16-.6-.16-.34,0-.62.16-.84.48-.23.32-.34.75-.34,1.3v2.51h-.79v-4.92h.79v1.01h.02c.11-.35.28-.62.51-.81s.49-.29.77-.29c.21,0,.36.02.47.07v.82"/>
        <path class="cls-6" d="M62.69,181.5h-.79v-2.81c0-1.04-.38-1.57-1.14-1.57-.39,0-.72.15-.98.44s-.39.67-.39,1.12v2.81h-.79v-4.92h.79v.82h.02c.37-.62.91-.93,1.62-.93.54,0,.95.17,1.24.52.29.35.43.85.43,1.51v3.01"/>
        <path class="cls-6" d="M75.13,174.61l-1.95,6.89h-.95l-1.42-5.04c-.06-.21-.1-.45-.11-.7h-.02c-.02.24-.06.47-.12.69l-1.43,5.05h-.94l-2.02-6.89h.89l1.47,5.29c.06.22.1.45.12.69h.02c.02-.17.07-.4.15-.69l1.52-5.29h.77l1.46,5.33c.05.18.09.4.12.64h.02c.01-.17.06-.39.13-.66l1.41-5.31h.87"/>
        <path class="cls-6" d="M78.11,181.62c-.73,0-1.31-.23-1.74-.69-.43-.46-.65-1.07-.65-1.83,0-.83.23-1.47.68-1.94.45-.46,1.06-.7,1.83-.7s1.31.23,1.72.68c.41.45.62,1.08.62,1.88s-.22,1.41-.67,1.89c-.44.47-1.04.71-1.79.71h0M78.16,177.13c-.51,0-.91.17-1.2.52-.29.34-.44.82-.44,1.43s.15,1.04.45,1.38c.3.34.7.5,1.2.5s.9-.17,1.18-.5.41-.8.41-1.41-.14-1.09-.41-1.42c-.27-.33-.67-.5-1.18-.5"/>
        <path class="cls-6" d="M84.37,177.38c-.14-.11-.34-.16-.6-.16-.34,0-.62.16-.84.48s-.34.75-.34,1.3v2.51h-.79v-4.92h.79v1.01h.02c.11-.35.28-.62.51-.81s.49-.29.77-.29c.21,0,.36.02.47.07v.82"/>
        <polyline class="cls-6" points="89.31 181.5 88.2 181.5 86.03 179.14 86.01 179.14 86.01 181.5 85.22 181.5 85.22 174.21 86.01 174.21 86.01 178.83 86.03 178.83 88.1 176.58 89.13 176.58 86.85 178.95 89.31 181.5"/>
        <path class="cls-6" d="M36.9,181.5h-.8v-4.62c0-.37.02-.81.07-1.34h-.02c-.08.31-.15.53-.21.67l-2.36,5.3h-.39l-2.35-5.26c-.07-.15-.14-.39-.21-.71h-.02c.03.28.04.73.04,1.35v4.61h-.78v-6.89h1.07l2.11,4.81c.16.37.27.64.32.83h.03c.14-.38.25-.66.33-.85l2.16-4.79h1.01v6.89"/>
        <path class="cls-6" d="M40.66,181.62c-.73,0-1.31-.23-1.74-.69-.43-.46-.65-1.07-.65-1.83,0-.83.23-1.47.68-1.94.45-.46,1.06-.7,1.83-.7s1.31.23,1.72.68c.41.45.62,1.08.62,1.88s-.22,1.41-.67,1.89c-.44.47-1.04.71-1.79.71h0M40.72,177.13c-.51,0-.91.17-1.2.52-.29.34-.44.82-.44,1.43s.15,1.04.45,1.38.7.5,1.2.5.9-.17,1.18-.5.41-.8.41-1.41-.14-1.09-.41-1.42c-.27-.33-.67-.5-1.18-.5"/>
        <path class="cls-6" d="M48.56,181.5h-.79v-.84h-.02c-.37.63-.93.95-1.69.95-.62,0-1.11-.22-1.48-.66-.37-.44-.56-1.04-.56-1.8,0-.81.21-1.47.62-1.96.41-.49.96-.74,1.64-.74s1.17.27,1.48.8h.02v-3.05h.79v7.29h0M47.77,179.28v-.73c0-.4-.13-.73-.39-1.01s-.6-.41-1-.41c-.48,0-.86.18-1.13.53-.28.35-.41.84-.41,1.46,0,.57.13,1.02.4,1.34.26.33.62.49,1.06.49s.8-.16,1.07-.48.41-.72.41-1.2"/>
        <path class="cls-6" d="M54.1,179.24h-3.48c.01.55.16.97.44,1.27.28.3.67.45,1.16.45.55,0,1.06-.18,1.53-.55v.74c-.43.31-1,.47-1.72.47s-1.24-.22-1.64-.67c-.4-.45-.6-1.08-.6-1.89,0-.77.22-1.39.65-1.87.43-.48.97-.72,1.62-.72s1.14.21,1.49.62c.35.42.53,1,.53,1.74v.41h0M53.3,178.57c0-.46-.11-.81-.33-1.06-.22-.25-.52-.38-.9-.38s-.69.13-.95.4-.42.61-.48,1.04h2.66"/>
        <path class="cls-6" d="M57.85,177.38c-.14-.11-.34-.16-.6-.16-.34,0-.62.16-.84.48-.23.32-.34.75-.34,1.3v2.51h-.79v-4.92h.79v1.01h.02c.11-.35.28-.62.51-.81s.49-.29.77-.29c.21,0,.36.02.47.07v.82"/>
        <path class="cls-6" d="M62.79,181.5h-.79v-2.81c0-1.04-.38-1.57-1.14-1.57-.39,0-.72.15-.98.44s-.39.67-.39,1.12v2.81h-.79v-4.92h.79v.82h.02c.37-.62.91-.93,1.62-.93.54,0,.95.17,1.24.52.29.35.43.85.43,1.51v3.01"/>
        <path class="cls-6" d="M75.23,174.61l-1.95,6.89h-.95l-1.42-5.04c-.06-.21-.1-.45-.11-.7h-.02c-.02.24-.06.47-.12.69l-1.43,5.05h-.94l-2.02-6.89h.89l1.47,5.29c.06.22.1.45.12.69h.02c.02-.17.07-.4.15-.69l1.52-5.29h.77l1.46,5.33c.05.18.09.4.12.64h.02c.01-.17.06-.39.13-.66l1.41-5.31h.87"/>
        <path class="cls-6" d="M78.2,181.62c-.73,0-1.31-.23-1.74-.69s-.65-1.07-.65-1.83c0-.83.23-1.47.68-1.94.45-.46,1.06-.7,1.83-.7s1.31.23,1.72.68c.41.45.62,1.08.62,1.88s-.22,1.41-.67,1.89c-.44.47-1.04.71-1.79.71h0M78.26,177.13c-.51,0-.91.17-1.2.52-.29.34-.44.82-.44,1.43s.15,1.04.45,1.38.7.5,1.2.5.9-.17,1.18-.5.41-.8.41-1.41-.14-1.09-.41-1.42c-.27-.33-.67-.5-1.18-.5"/>
        <path class="cls-6" d="M84.47,177.38c-.14-.11-.34-.16-.6-.16-.34,0-.62.16-.84.48s-.34.75-.34,1.3v2.51h-.79v-4.92h.79v1.01h.02c.11-.35.28-.62.51-.81s.49-.29.77-.29c.21,0,.36.02.47.07v.82"/>
        <polyline class="cls-6" points="89.41 181.5 88.3 181.5 86.13 179.14 86.11 179.14 86.11 181.5 85.32 181.5 85.32 174.21 86.11 174.21 86.11 178.83 86.13 178.83 88.2 176.58 89.23 176.58 86.95 178.95 89.41 181.5"/>
      </g>
      <g>
        <path class="cls-10" d="M490.76,188.92c0,.53-.43.95-.96.96h-62.66c-.53,0-.95-.43-.96-.96v-13.19c0-.53.43-.95.96-.96h62.69c.53,0,.95.43.96.96l-.03,13.19Z"/>
        <path class="cls-16" d="M435.94,179.94s-.05.08-.08.11c-.03.03-.05.03-.11.03-.06,0-.12-.03-.16-.08-.08-.06-.16-.12-.25-.16-.12-.06-.25-.12-.38-.16-.17-.06-.34-.09-.52-.08-.18,0-.35.03-.52.08-.14.06-.26.13-.38.22-.1.09-.18.2-.22.33-.06.12-.08.25-.08.38,0,.16.04.31.14.44.09.13.21.23.36.3.15.09.32.17.49.22.19.05.38.14.57.19.2.06.39.13.57.22.18.08.34.18.49.3.15.13.27.29.36.46.09.22.14.45.14.68,0,.27-.05.54-.14.79-.1.24-.24.46-.41.66-.19.2-.42.35-.68.44-.29.11-.59.17-.9.16-.39,0-.78-.08-1.15-.22-.32-.15-.62-.35-.87-.6l.25-.41.08-.08s.07-.03.11-.03c.08,0,.16.05.22.11.08.05.19.14.3.22.13.09.28.17.44.22.2.07.41.11.63.11.19,0,.37-.02.55-.08.15-.05.29-.13.41-.25.11-.11.2-.24.25-.38.06-.16.09-.32.08-.49,0-.33-.19-.63-.49-.76-.15-.09-.32-.17-.49-.22-.2-.05-.39-.12-.57-.19-.2-.06-.39-.13-.57-.22-.18-.08-.34-.18-.49-.3-.14-.15-.26-.31-.36-.49-.09-.23-.14-.47-.14-.71,0-.22.05-.45.14-.66.18-.45.55-.8,1.01-.96.27-.1.56-.15.85-.14.33,0,.67.05.98.16.29.1.55.27.76.49l-.19.36Z"/>
        <path class="cls-16" d="M438.31,179.39c0,.08-.02.15-.05.22-.04.07-.08.13-.14.19-.05.05-.12.09-.19.11-.14.07-.3.07-.44,0-.05-.03-.14-.08-.19-.11-.05-.06-.1-.12-.14-.19-.07-.14-.07-.3,0-.44.03-.07.08-.14.14-.19.05-.05.12-.09.19-.11.14-.07.3-.07.44,0,.05.03.14.08.19.11.05.06.1.12.14.19.05.06.07.14.05.22ZM438.15,180.81v4.53h-.79v-4.53h.79Z"/>
        <path class="cls-16" d="M440.44,178.76v6.58h-.79v-6.58h.79Z"/>
        <path class="cls-16" d="M441.26,180.81h.66c.06,0,.11.02.16.05.04.02.07.06.08.11l1.15,2.92c.05.1.09.21.11.33.03.11.05.22.05.33l.08-.33c.02-.11.06-.22.11-.33l1.17-2.92s.05-.08.08-.11c.04-.03.09-.05.14-.05h.63l-1.86,4.53h-.71l-1.86-4.53Z"/>
        <path class="cls-16" d="M448.09,180.73c.26,0,.52.05.76.14.22.08.43.21.6.38.17.18.3.39.38.63.09.28.14.58.14.87,0,.14,0,.22-.03.25-.05.04-.1.06-.16.05h-3c0,.25.04.5.11.74.06.19.16.37.3.52.13.13.27.24.44.33.18.08.38.12.57.11.18,0,.35-.02.52-.08.12-.05.25-.1.38-.14.09-.05.18-.1.27-.14.05-.05.12-.07.19-.08.06,0,.12.03.16.08l.22.3c-.11.11-.22.22-.36.3-.14.09-.28.16-.44.22-.16.06-.32.1-.49.14-.16.03-.33.05-.49.05-.3,0-.6-.05-.87-.16-.26-.11-.49-.26-.68-.46-.21-.21-.36-.48-.44-.76-.11-.33-.17-.69-.16-1.04,0-.3.05-.59.14-.87.1-.26.24-.5.41-.71.19-.19.41-.35.66-.46.27-.12.57-.19.87-.19ZM448.12,181.33c-.33-.02-.66.1-.9.33-.24.25-.38.58-.41.93h2.46c0-.18-.03-.35-.08-.52-.05-.15-.12-.29-.22-.41-.11-.11-.23-.2-.36-.27-.16-.03-.33-.05-.49-.05Z"/>
        <path class="cls-16" d="M450.99,185.34v-4.53h.46c.07,0,.13.02.19.05.04.05.06.1.05.16l.05.71c.13-.29.33-.54.57-.74.23-.17.51-.27.79-.27.11,0,.22.02.33.05.1.02.19.06.27.11l-.11.6c-.03.08-.05.11-.14.11-.07-.01-.13-.03-.19-.05-.12-.04-.23-.05-.36-.05-.25-.01-.5.08-.68.25-.22.19-.38.43-.46.71v2.9h-.79Z"/>
        <path class="cls-16" d="M457.41,182.94v2.4h-.87v-6.42h1.88c.36,0,.72.04,1.07.14.28.07.53.21.74.41.2.17.35.38.44.63.19.53.18,1.11-.03,1.64-.1.25-.26.46-.46.63-.21.19-.46.33-.74.41-.34.11-.69.15-1.04.14l-.98.03h0ZM457.41,182.26h1.04c.22,0,.45-.03.66-.11.18-.05.33-.14.46-.27.13-.11.23-.25.3-.41.07-.18.1-.36.11-.55.02-.36-.12-.71-.38-.96-.33-.25-.73-.38-1.15-.36h-1.04v2.65Z"/>
        <path class="cls-16" d="M464.89,185.34h-.36c-.07,0-.13,0-.19-.03-.06-.03-.09-.1-.08-.16l-.08-.41c-.11.11-.25.19-.36.3-.11.08-.23.16-.36.22-.13.07-.27.11-.41.14-.15.03-.31.05-.46.05-.17,0-.33-.03-.49-.08-.15-.05-.29-.12-.41-.22-.11-.11-.2-.24-.27-.38-.07-.17-.1-.36-.11-.55,0-.18.05-.36.14-.52.12-.18.28-.33.46-.44.27-.16.57-.27.87-.33.43-.09.87-.14,1.31-.14v-.36c.02-.28-.06-.56-.22-.79-.17-.19-.41-.29-.66-.27-.17,0-.33.02-.49.08-.14.05-.25.11-.36.16-.09.04-.17.1-.25.16-.06.05-.14.08-.22.08-.05,0-.1-.02-.14-.05-.03-.03-.08-.05-.11-.11l-.14-.25c.47-.47,1.11-.74,1.78-.74.23,0,.47.05.68.14.19.08.36.2.49.36.15.15.25.34.3.55.08.23.12.47.11.71v2.87h0ZM462.84,184.85c.13,0,.26-.02.38-.05.11-.03.22-.08.33-.11.11-.05.21-.12.3-.19.08-.08.19-.16.27-.25v-.93c-.31,0-.62.02-.93.08-.22.04-.43.1-.63.19-.14.06-.26.15-.36.27-.08.1-.12.23-.11.36,0,.1.02.2.05.3.03.09.09.17.16.22.06.07.15.11.25.11h.27Z"/>
        <path class="cls-16" d="M466.09,185.34v-4.53h.46c.07,0,.13.02.19.05.04.05.06.1.05.16l.05.71c.13-.29.33-.54.57-.74.23-.17.51-.27.79-.27.11,0,.22.02.33.05.1.02.19.06.27.11l-.11.6c-.03.08-.05.11-.14.11-.07,0-.13-.03-.19-.05-.12-.04-.23-.05-.36-.05-.25-.01-.5.08-.68.25-.22.19-.38.43-.46.71v2.9h-.79Z"/>
        <path class="cls-16" d="M471.09,185.43c-.3.02-.6-.09-.82-.3-.21-.24-.32-.55-.3-.87v-2.79h-.55s-.08-.02-.11-.05c-.03-.04-.05-.09-.05-.14v-.33l.74-.08.19-1.39s.02-.08.05-.11c.04-.03.09-.05.14-.05h.41v1.56h1.31v.57h-1.31v2.73c0,.16.04.31.14.44.1.09.22.14.36.14.07,0,.15,0,.22-.03l.16-.08s.08-.05.11-.08c.02-.02.05-.03.08-.03.05,0,.09.04.11.08l.25.38c-.14.13-.31.23-.49.3-.2.08-.41.13-.63.14Z"/>
        <path class="cls-16" d="M473.06,185.34v-4.53h.46c.1,0,.2.06.22.16l.05.49c.19-.21.41-.39.66-.52.26-.14.55-.2.85-.19.22,0,.45.03.66.11.19.07.35.19.46.36.13.16.23.35.3.55.07.23.1.47.11.71v2.9h-.79v-2.9c.02-.29-.07-.57-.25-.79-.18-.2-.44-.3-.71-.27-.23,0-.46.05-.66.16-.21.13-.4.29-.57.46v3.33l-.79-.03h0Z"/>
        <path class="cls-16" d="M479.81,180.73c.26,0,.52.05.76.14.22.08.43.21.6.38.17.18.3.39.38.63.09.28.14.58.14.87,0,.08-.01.16-.03.25-.05.04-.1.06-.16.05h-3c0,.25.04.5.11.74.06.2.16.37.3.52.13.13.27.24.44.33.18.08.38.12.57.11.18,0,.35-.02.52-.08.12-.05.25-.1.38-.14.09-.05.18-.1.27-.14.05-.05.12-.07.19-.08.06,0,.12.03.16.08l.22.3c-.11.11-.22.22-.36.3-.14.09-.28.16-.44.22-.16.06-.32.1-.49.14-.16.03-.33.05-.49.05-.3,0-.6-.05-.87-.16-.26-.11-.49-.26-.68-.46-.21-.21-.36-.48-.44-.76-.11-.33-.17-.69-.16-1.04,0-.3.05-.59.14-.87.1-.26.24-.5.41-.71.19-.19.41-.35.66-.46.27-.13.57-.2.87-.19ZM479.83,181.33c-.33-.02-.66.1-.9.33-.24.25-.38.58-.41.93h2.46c0-.18-.03-.35-.08-.52-.05-.15-.12-.29-.22-.41-.11-.11-.23-.2-.36-.27-.16-.03-.33-.05-.49-.05h0Z"/>
        <path class="cls-16" d="M482.7,185.34v-4.53h.46c.07,0,.13.02.19.05.04.05.06.1.05.16l.05.71c.13-.29.33-.54.57-.74.23-.17.51-.27.79-.27.11,0,.22.02.33.05.1.02.19.06.27.11l-.11.6c-.03.08-.05.11-.14.11-.07,0-.13-.03-.19-.05-.12-.04-.23-.05-.36-.05-.25-.01-.5.08-.68.25-.22.19-.38.43-.46.71v2.9h-.79Z"/>
        <path class="cls-7" d="M477.57,142.95c-7.54,0-13.66,6.12-13.66,13.66s6.12,13.66,13.66,13.66,13.66-6.12,13.66-13.66-6.12-13.66-13.66-13.66ZM477.57,164.8c-4.53,0-8.19-3.67-8.19-8.19s3.67-8.19,8.19-8.19,8.19,3.67,8.19,8.19h0c0,4.53-3.67,8.19-8.19,8.19Z"/>
        <path class="cls-7" d="M448.88,142.95c-7.54,0-13.66,6.12-13.66,13.66s6.12,13.66,13.66,13.66,13.66-6.12,13.66-13.66-6.12-13.66-13.66-13.66ZM448.88,164.8c-4.53,0-8.19-3.67-8.19-8.19s3.67-8.19,8.19-8.19,8.19,3.67,8.19,8.19h0c0,4.53-3.67,8.19-8.19,8.19Z"/>
        <path class="cls-14" d="M391.52,142.95c-7.54,0-13.66,6.12-13.66,13.66s6.12,13.66,13.66,13.66,13.66-6.12,13.66-13.66-6.12-13.66-13.66-13.66ZM391.52,164.8c-4.53,0-8.19-3.67-8.19-8.19s3.67-8.19,8.19-8.19,8.19,3.67,8.19,8.19h0c0,4.53-3.67,8.19-8.19,8.19Z"/>
        <path class="cls-7" d="M431.13,134.73c-1.51,0-2.73,1.22-2.73,2.73v8.19c-6.03-4.53-14.6-3.3-19.12,2.73-4.53,6.03-3.3,14.6,2.73,19.12,6.03,4.53,14.6,3.3,19.12-2.73,1.77-2.36,2.73-5.22,2.73-8.17h0v-19.15c0-1.51-1.22-2.73-2.73-2.73ZM420.2,164.78c-4.53,0-8.19-3.67-8.19-8.19s3.67-8.19,8.19-8.19,8.19,3.67,8.19,8.19h0c0,4.53-3.67,8.19-8.19,8.19Z"/>
      </g>
      <g>
        <rect class="cls-4" x="191.94" y="161.13" width="9.97" height="2.24"/>
        <path class="cls-4" d="M206.88,152.98h-6.59l1.59,2.26,4.82,1.47c.9.27,1.47,1.12,1.44,1.99h0v7.21h0c0,.9-.57,1.72-1.44,1.99l-4.8,1.47-1.62,2.26h6.59c2.76,0,4.97-2.24,4.97-4.97v-8.7c.02-2.74-2.21-4.97-4.97-4.97"/>
        <path class="cls-4" d="M186.94,152.98h6.59l-1.59,2.26-4.8,1.47c-.9.27-1.47,1.12-1.44,1.99h0v7.21h0c0,.9.57,1.72,1.44,1.99l4.8,1.47,1.59,2.26h-6.59c-2.74,0-4.97-2.24-4.97-4.97v-8.7c0-2.74,2.24-4.97,4.97-4.97"/>
        <path class="cls-4" d="M292.59,166.01c0,1.62-1.32,2.91-2.96,2.91s-2.96-1.32-2.96-2.91v-7.14c0-1.62,1.32-2.91,2.96-2.91s2.96,1.32,2.96,2.91v.07h2.26v-.1c0-2.81-2.34-5.12-5.22-5.12s-5.22,2.31-5.22,5.15v7.11c0,2.83,2.34,5.15,5.22,5.15s5.2-2.31,5.22-5.15v-.07h-2.26v.1Z"/>
        <path class="cls-4" d="M304.33,158.32c-2.39,0-4.38,1.86-4.48,4.23v4.38c.12,2.36,2.09,4.23,4.48,4.23s4.35-1.86,4.48-4.23v-4.38c-.1-2.36-2.06-4.23-4.48-4.23M306.54,166.65c-.02,1.24-.99,2.21-2.21,2.21s-2.19-.97-2.21-2.21v-3.85c0-1.22.99-2.21,2.21-2.21s2.21.99,2.21,2.21v3.85Z"/>
        <rect class="cls-4" x="295.97" y="153.72" width="2.26" height="17.16"/>
        <rect class="cls-4" x="233.89" y="158.32" width="2.26" height="12.53"/>
        <rect class="cls-4" x="229.39" y="153.72" width="2.26" height="17.16"/>
        <path class="cls-4" d="M223.69,153.72h-2.76l-4.55,17.13v.02h2.24l1.22-4.55,4.97.02,1.19,4.53v.02h2.24l-4.55-17.18h0ZM224.21,164.09h-3.78l1.89-7.11,1.89,7.11Z"/>
        <path class="cls-4" d="M317.13,166.9c0,1.22-.99,2.21-2.21,2.21s-2.21-.99-2.21-2.21v-8.58h-2.26v8.95c0,2.14,1.74,3.88,3.88,3.88.4,0,.77-.05,1.14-.17.22-.07.42-.15.62-.25.35-.17.67-.4.94-.67l.1-.1v.92h2.26v-12.56h-2.26v8.58h0Z"/>
        <rect class="cls-4" x="233.89" y="153.72" width="2.26" height="2.26"/>
        <path class="cls-4" d="M243.46,158.32c-1.02,0-1.99.4-2.71,1.12l-.1.1v-5.82h-2.26v17.16h2.26v-.92l.1.1c.72.72,1.69,1.12,2.71,1.12,2.14,0,3.88-1.74,3.88-3.88v-5.1c0-2.16-1.74-3.88-3.88-3.88M245.1,162.6v4.25c0,1.22-.99,2.24-2.24,2.24s-2.24-.99-2.24-2.24v-4.25c0-1.22.99-2.24,2.24-2.24,1.24.02,2.24,1.02,2.24,2.24"/>
        <path class="cls-4" d="M264.45,158.3c-1.02,0-1.99.4-2.71,1.12l-.1.1v-5.79h-2.26v17.16h2.26v-.92l.1.1c.72.72,1.69,1.12,2.71,1.12,2.14,0,3.88-1.74,3.88-3.88v-5.12c0-2.14-1.74-3.88-3.88-3.88M266.09,162.6v4.25c0,1.22-.99,2.24-2.24,2.24s-2.24-.99-2.24-2.24v-4.25c0-1.22.99-2.24,2.24-2.24s2.24,1.02,2.24,2.24"/>
        <path class="cls-4" d="M327.73,153.72v5.79l-.1-.1c-.72-.72-1.69-1.12-2.71-1.12-2.14,0-3.88,1.74-3.88,3.88v5.1c0,2.14,1.74,3.85,3.88,3.85,1.02,0,1.99-.4,2.71-1.12l.1-.1v.92h2.26v-17.11h-2.26ZM327.7,162.6v4.25c0,1.22-.99,2.24-2.24,2.24s-2.24-.99-2.24-2.24v-4.25c0-1.22.99-2.24,2.24-2.24s2.24,1.02,2.24,2.24"/>
        <path class="cls-4" d="M257.76,162.58c0-.12-.02-.27-.05-.45v-.05c-.12-.67-.37-1.32-.77-1.89-.8-1.12-2.01-1.79-3.36-1.86h-.25c-1.04,0-2.06.37-2.88,1.04-.8.67-1.34,1.59-1.54,2.64v.02h2.21v-.02c.2-1.04,1.12-1.79,2.16-1.79.57,0,1.12.22,1.54.62.42.4.65.94.67,1.52v1.04h-3.21c-2.14,0-3.88,1.74-3.88,3.88,0,1.79,1.24,3.31,2.91,3.75.02,0,.05,0,.05.02.07.02.15.02.22.05s.17.02.27.05h.05c.17.02.37.02.6.02.55,0,1.02-.07,1.34-.2.57-.17,1.09-.5,1.54-.92l.1-.1v.92h2.26v-8.3h0ZM252.73,165.09h2.74v1.59c0,1.19-.87,2.24-2.04,2.46-.17.05-.35.05-.5.05-.4,0-.77-.1-1.14-.32-.1-.05-.2-.12-.3-.17-.12-.1-.25-.22-.35-.35l-.02-.02c-.27-.35-.42-.77-.42-1.22.02-1.12.92-2.01,2.04-2.01"/>
        <path class="cls-4" d="M278.77,162.58c0-.12-.02-.27-.05-.45v-.05c-.12-.67-.37-1.32-.77-1.89-.8-1.12-2.01-1.79-3.36-1.86h-.25c-1.04,0-2.06.37-2.88,1.04-.8.67-1.34,1.59-1.54,2.64v.02h2.21v-.02c.2-1.04,1.12-1.79,2.16-1.79.57,0,1.12.22,1.54.62.42.4.65.94.67,1.52v1.04h-3.21c-2.14,0-3.88,1.74-3.88,3.88,0,1.79,1.24,3.31,2.91,3.75.02,0,.05,0,.05.02.07.02.15.02.22.05s.17.02.27.05h.05c.17.02.37.02.6.02.55,0,1.02-.07,1.34-.2.57-.17,1.09-.5,1.54-.92l.1-.1v.92h2.26v-8.3h0ZM273.74,165.09h2.74v1.59c0,1.19-.87,2.24-2.04,2.46-.17.05-.35.05-.5.05-.4,0-.77-.1-1.14-.32-.1-.05-.2-.12-.3-.17-.12-.1-.25-.22-.35-.35l-.02-.02c-.27-.35-.42-.77-.42-1.22.02-1.09.92-2.01,2.04-2.01"/>
      </g>
      <g>
        <rect class="cls-1" x="354.16" y="120.56" width="1.88" height="83.48"/>
        <rect class="cls-1" x="155.92" y="120.56" width="1.88" height="83.48"/>
      </g>
    </g>
  </g>
</svg>