<?xml version="1.0" encoding="UTF-8" standalone="no"?>
<!-- Uploaded to: SVG Repo, www.svgrepo.com, Generator: SVG Repo Mixer Tools -->

<svg
   width="16.666668"
   height="16.666668"
   viewBox="0 0 40.000003 40.000003"
   fill="none"
   version="1.1"
   id="svg2"
   xmlns="http://www.w3.org/2000/svg"
   xmlns:svg="http://www.w3.org/2000/svg">
  <defs
     id="defs2" />
  <circle
     cx="20"
     cy="20"
     r="20"
     fill="#0077b5"
     id="circle1" />
  <path
     fill-rule="evenodd"
     clip-rule="evenodd"
     d="m 14.7747,10.2839 c 0,1.2451 -0.948,2.2527 -2.4305,2.2527 -1.4248,0 -2.3729,-1.0076 -2.3435,-2.2527 C 9.9713,8.9783 10.9193,8 12.3726,8 c 1.4541,0 2.3737,0.9783 2.4021,2.2839 z M 10.1199,28.8191 V 14.3162 h 4.5072 v 14.5019 h -4.5072 z"
     fill="#ffffff"
     id="path1" />
  <path
     fill-rule="evenodd"
     clip-rule="evenodd"
     d="m 18.2393,18.9446 c 0,-1.8089 -0.0596,-3.3511 -0.1192,-4.6264 h 3.915 l 0.2081,1.9868 h 0.089 c 0.5932,-0.9196 2.0757,-2.3123 4.4779,-2.3123 2.9651,0 5.1894,1.9575 5.1894,6.2263 v 8.602 h -4.5073 v -8.0372 c 0,-1.8694 -0.6518,-3.1439 -2.2829,-3.1439 -1.246,0 -1.9869,0.86 -2.283,1.6898 -0.1192,0.2971 -0.1779,0.7115 -0.1779,1.1277 v 8.3636 h -4.5073 v -9.8764 z"
     fill="#ffffff"
     id="path2" />
</svg>
