<?xml version="1.0" encoding="UTF-8"?>
<!DOCTYPE svg PUBLIC "-//W3C//DTD SVG 1.1//EN" "http://www.w3.org/Graphics/SVG/1.1/DTD/svg11.dtd">
<svg xmlns="http://www.w3.org/2000/svg" version="1.1" width="20px" height="16.3px" style="shape-rendering:geometricPrecision; text-rendering:geometricPrecision; image-rendering:optimizeQuality; fill-rule:evenodd; clip-rule:evenodd" xmlns:xlink="http://www.w3.org/1999/xlink">
<g><path style="opacity:0.84" fill="#f8f8f8" d="M 68.5,37.5 C 77.5069,37.1407 84.5069,40.8073 89.5,48.5C 94.3178,56.5743 95.8178,65.241 94,74.5C 99.5004,67.5395 104.167,67.8728 108,75.5C 110.077,70.8788 113.577,69.0454 118.5,70C 120.778,70.9862 123.111,71.8195 125.5,72.5C 130.518,66.9656 136.018,66.2989 142,70.5C 142.667,72.8333 142.667,75.1667 142,77.5C 138.276,81.2795 133.776,83.2795 128.5,83.5C 128.5,84.5 128.5,85.5 128.5,86.5C 133.234,87.0167 137.9,87.0167 142.5,86.5C 143.242,74.999 143.908,63.499 144.5,52C 144.092,50.0695 143.425,48.2362 142.5,46.5C 143,44.5 143.5,42.5 144,40.5C 145.699,39.5939 147.533,39.2606 149.5,39.5C 149.5,40.5 149.5,41.5 149.5,42.5C 155.533,41.9652 161.199,43.1319 166.5,46C 170.5,50 170.5,54 166.5,58C 169.432,58.2718 171.932,59.4385 174,61.5C 174.21,55.7694 174.876,50.1027 176,44.5C 179.979,40.3562 183.645,40.6896 187,45.5C 188.527,51.4149 188.861,57.4149 188,63.5C 187.604,66.6964 186.438,69.5297 184.5,72C 187.167,71.6667 189.833,71.3333 192.5,71C 193.227,72.3988 193.727,73.8988 194,75.5C 196.46,70.0801 200.127,68.7468 205,71.5C 205.743,73.4406 205.576,75.2739 204.5,77C 205.793,77.49 207.127,77.6567 208.5,77.5C 208.739,79.4672 208.406,81.3005 207.5,83C 202.934,84.3092 198.267,84.8092 193.5,84.5C 193.649,83.448 193.483,82.448 193,81.5C 191.934,84.5631 189.767,86.0631 186.5,86C 188.063,88.4763 187.396,89.9763 184.5,90.5C 180.004,88.6667 177.337,85.3334 176.5,80.5C 174.876,80.6399 173.71,79.9733 173,78.5C 169.312,83.5131 164.478,87.0131 158.5,89C 169.706,89.4197 180.706,91.0864 191.5,94C 193.221,95.5272 195.221,96.5272 197.5,97C 198.667,98.8333 200.167,100.333 202,101.5C 202.494,103.134 202.66,104.801 202.5,106.5C 198.522,107.034 195.522,105.534 193.5,102C 192,101.5 190.5,101 189,100.5C 187.56,101.148 186.06,101.481 184.5,101.5C 184.5,102.833 184.5,104.167 184.5,105.5C 171.468,105.231 158.468,105.731 145.5,107C 129.568,110.387 113.568,113.387 97.5,116C 85.4669,116.771 73.4669,116.605 61.5,115.5C 61.719,114.325 61.3857,113.325 60.5,112.5C 57.0647,111.633 53.7314,110.466 50.5,109C 48.8158,106.214 49.4825,104.38 52.5,103.5C 57.6911,105.454 63.0244,106.787 68.5,107.5C 68.5,106.167 68.5,104.833 68.5,103.5C 81.3991,103.919 94.0658,102.419 106.5,99C 78.1433,98.1831 49.81,98.3498 21.5,99.5C 18.7862,99.0596 16.6195,97.7262 15,95.5C 13.9031,92.2589 12.7365,89.0922 11.5,86C 11.9212,83.8154 12.4212,81.6487 13,79.5C 17.9558,76.2279 20.4558,77.5612 20.5,83.5C 26.857,83.5237 33.1903,83.1904 39.5,82.5C 39.0811,77.3022 41.2477,75.6355 46,77.5C 47.0086,75.9751 47.5086,74.3084 47.5,72.5C 49.6547,72.372 51.6547,72.872 53.5,74C 54.1361,76.7745 55.6361,78.9412 58,80.5C 58.1692,74.5091 58.0025,68.5091 57.5,62.5C 56.2441,51.8253 59.9107,43.492 68.5,37.5 Z M 70.5,44.5 C 75.9451,44.4246 80.1117,46.758 83,51.5C 92.3747,65.0911 89.208,75.5911 73.5,83C 70.4786,83.8494 67.4786,84.6827 64.5,85.5C 62.3837,72.9416 63.2171,60.6083 67,48.5C 68.3756,47.2949 69.5423,45.9616 70.5,44.5 Z M 150.5,48.5 C 154.746,48.5615 158.746,49.5615 162.5,51.5C 159.091,54.4762 155.258,56.8095 151,58.5C 150.502,55.1832 150.335,51.8499 150.5,48.5 Z M 181.5,52.5 C 182.249,53.531 182.915,54.6976 183.5,56C 182.286,58.3506 181.452,60.8506 181,63.5C 180.421,59.7973 180.588,56.1306 181.5,52.5 Z M 157.5,64.5 C 172.921,64.7626 174.588,69.7626 162.5,79.5C 158.388,81.6397 154.221,83.6397 150,85.5C 150.138,78.8561 150.305,72.1894 150.5,65.5C 153.059,65.8016 155.393,65.4682 157.5,64.5 Z M 87.5,80.5 C 90.0448,80.1505 92.0448,80.9838 93.5,83C 90.8333,83.6667 88.1667,83.6667 85.5,83C 86.3805,82.2917 87.0472,81.4584 87.5,80.5 Z M 120.5,84.5 C 120.56,83.9569 120.893,83.6236 121.5,83.5C 122.833,87.5 122.833,91.5 121.5,95.5C 119.929,96.3094 118.262,96.6427 116.5,96.5C 116.019,92.6509 117.686,90.6509 121.5,90.5C 121.795,88.2646 121.461,86.2646 120.5,84.5 Z M 48.5,84.5 C 49.9778,84.238 51.3112,84.5713 52.5,85.5C 53.9242,87.7178 55.9242,89.2178 58.5,90C 76.1537,89.7398 93.8204,89.5732 111.5,89.5C 111.5,90.5 111.5,91.5 111.5,92.5C 81.1593,92.8332 50.826,92.4998 20.5,91.5C 20.2907,90.914 19.9574,90.414 19.5,90C 28.8702,89.7761 38.2035,89.1095 47.5,88C 48.3366,86.9887 48.67,85.8221 48.5,84.5 Z M 128.5,91.5 C 130.308,91.4914 131.975,91.9914 133.5,93C 132.667,93.1667 131.833,93.3333 131,93.5C 129.624,93.3158 128.791,92.6491 128.5,91.5 Z"/></g>
<g><path style="opacity:1" fill="#a4a7ab" d="M 147.5,46.5 C 147.5,45.8333 147.167,45.5 146.5,45.5C 146.622,41.1617 146.955,40.8284 147.5,44.5C 152.637,44.494 157.637,45.3274 162.5,47C 157.544,46.7488 152.544,46.5822 147.5,46.5 Z"/></g>
<g><path style="opacity:1" fill="#656b76" d="M 79.5,43.5 C 69.1577,40.2853 63.3244,44.2853 62,55.5C 61.6667,61.5 61.3333,67.5 61,73.5C 60.3333,66.5 60.3333,59.5 61,52.5C 62.8632,43.9458 68.0299,40.1125 76.5,41C 77.9423,41.3768 78.9423,42.2101 79.5,43.5 Z"/></g>
<g><path style="opacity:1" fill="#5e646f" d="M 178.5,54.5 C 177.662,54.1583 177.328,53.4916 177.5,52.5C 177.055,49.6354 177.722,47.1354 179.5,45C 183.75,44.9586 185.583,47.1253 185,51.5C 184.163,49.1558 182.829,47.1558 181,45.5C 179.097,48.1706 178.264,51.1706 178.5,54.5 Z"/></g>
<g><path style="opacity:1" fill="#757980" d="M 79.5,43.5 C 82.5,44.5 84.5,46.5 85.5,49.5C 83.1667,47.8333 81.1667,45.8333 79.5,43.5 Z"/></g>
<g><path style="opacity:1" fill="#656a74" d="M 85.5,49.5 C 88.1119,51.0522 89.4452,53.3855 89.5,56.5C 87.9172,54.3374 86.5839,52.0041 85.5,49.5 Z"/></g>
<g><path style="opacity:1" fill="#525865" d="M 146.5,45.5 C 147.167,45.5 147.5,45.8333 147.5,46.5C 147.5,58.1667 147.5,69.8333 147.5,81.5C 146.508,74.3524 146.175,67.0191 146.5,59.5C 147.065,54.6778 146.399,50.1778 144.5,46C 145.094,45.5357 145.761,45.369 146.5,45.5 Z"/></g>
<g><path style="opacity:1" fill="#96989c" d="M 177.5,52.5 C 177.328,53.4916 177.662,54.1583 178.5,54.5C 178.334,61.175 178.5,67.8417 179,74.5C 179.654,73.3044 180.154,73.3044 180.5,74.5C 179.351,77.6012 179.684,80.6012 181.5,83.5C 181.154,84.6956 180.654,84.6956 180,83.5C 176.722,73.2171 175.888,62.8838 177.5,52.5 Z"/></g>
<g><path style="opacity:1" fill="#737984" d="M 172.5,64.5 C 165.666,62.8294 158.666,61.996 151.5,62C 156.253,59.5417 160.753,56.7084 165,53.5C 165.333,52.1667 165.667,50.8333 166,49.5C 166.667,51.1667 166.667,52.8333 166,54.5C 163.766,56.6998 161.266,58.5331 158.5,60C 162.219,60.3884 165.886,61.0551 169.5,62C 170.942,62.3768 171.942,63.2101 172.5,64.5 Z"/></g>
<g><path style="opacity:1" fill="#82858c" d="M 185.5,52.5 C 187.039,59.1306 185.873,65.4639 182,71.5C 183.656,65.3326 184.823,58.9992 185.5,52.5 Z"/></g>
<g><path style="opacity:1" fill="#7e828a" d="M 89.5,56.5 C 93.6789,63.0852 93.3456,69.4185 88.5,75.5C 90.7649,69.308 91.0982,62.9746 89.5,56.5 Z"/></g>
<g><path style="opacity:1" fill="#7d8189" d="M 132.5,70.5 C 134.527,70.3379 136.527,70.5045 138.5,71C 141.382,74.3554 140.716,76.3554 136.5,77C 139.372,74.4679 139.039,72.6345 135.5,71.5C 130.468,73.0322 127.302,76.3656 126,81.5C 125.667,85.5 125.333,89.5 125,93.5C 124.458,87.8024 124.125,82.1357 124,76.5C 124.333,77.1667 124.667,77.8333 125,78.5C 127.028,75.3078 129.528,72.6411 132.5,70.5 Z"/></g>
<g><path style="opacity:1" fill="#999b9f" d="M 172.5,64.5 C 173.947,65.1342 174.613,66.3009 174.5,68C 174.202,71.4294 172.869,74.2627 170.5,76.5C 172.143,72.6995 172.81,68.6995 172.5,64.5 Z"/></g>
<g><path style="opacity:1" fill="#6a717e" d="M 196.5,81.5 C 195.751,80.469 195.085,79.3024 194.5,78C 196.605,76.8066 198.272,75.1399 199.5,73C 200.448,72.5172 201.448,72.3505 202.5,72.5C 202.649,73.552 202.483,74.552 202,75.5C 200.333,76.5 198.667,77.5 197,78.5C 196.517,79.448 196.351,80.448 196.5,81.5 Z"/></g>
<g><path style="opacity:1" fill="#707785" d="M 96.5,77.5 C 97.2876,74.3791 99.2876,72.7124 102.5,72.5C 102.192,76.0091 100.192,77.6757 96.5,77.5 Z"/></g>
<g><path style="opacity:1" fill="#888c94" d="M 113.5,72.5 C 114.978,72.238 116.311,72.5713 117.5,73.5C 115.353,75.7368 113.02,77.7368 110.5,79.5C 113.825,80.3771 117.158,80.5437 120.5,80C 117.197,82.1962 113.697,82.6962 110,81.5C 109.517,80.552 109.351,79.552 109.5,78.5C 104.532,78.1341 104.866,77.6341 110.5,77C 111.386,75.3853 112.386,73.8853 113.5,72.5 Z"/></g>
<g><path style="opacity:1" fill="#5a606c" d="M 96.5,77.5 C 96.5,78.5 96.5,79.5 96.5,80.5C 96.5,80.8333 96.5,81.1667 96.5,81.5C 95.596,80.791 95.2627,79.791 95.5,78.5C 90.5,77.9969 90.8333,77.6636 96.5,77.5 Z"/></g>
<g><path style="opacity:1" fill="#8d8f95" d="M 88.5,75.5 C 87.5265,78.648 85.5265,80.4813 82.5,81C 84.3702,78.9604 86.3702,77.1271 88.5,75.5 Z"/></g>
<g><path style="opacity:1" fill="#a7a9ac" d="M 96.5,81.5 C 96.5,81.1667 96.5,80.8333 96.5,80.5C 99.8895,80.3679 103.223,80.2012 106.5,80C 103.213,82.1674 99.8799,82.6674 96.5,81.5 Z"/></g>
<g><path style="opacity:1" fill="#a3a4a7" d="M 170.5,76.5 C 169.833,79.1667 168.167,80.8333 165.5,81.5C 166.833,79.5 168.5,77.8333 170.5,76.5 Z"/></g>
<g><path style="opacity:1" fill="#72777e" d="M 189.5,76.5 C 190.473,76.9867 191.473,77.4867 192.5,78C 191.061,78.9906 190.061,80.324 189.5,82C 188.365,82.7494 187.365,82.5827 186.5,81.5C 187.325,80.6143 188.325,80.281 189.5,80.5C 189.5,79.1667 189.5,77.8333 189.5,76.5 Z"/></g>
<g><path style="opacity:1" fill="#939599" d="M 196.5,81.5 C 199.214,81.25 201.881,81.0833 204.5,81C 201.773,82.6357 199.107,82.8024 196.5,81.5 Z"/></g>
<g><path style="opacity:1" fill="#7e8086" d="M 165.5,81.5 C 164.341,83.2503 162.674,84.2503 160.5,84.5C 161.659,82.7497 163.326,81.7497 165.5,81.5 Z"/></g>
<g><path style="opacity:1" fill="#85898f" d="M 61.5,87.5 C 59.1579,87.4959 57.1579,86.6625 55.5,85C 57.8212,84.992 59.8212,85.8253 61.5,87.5 Z"/></g>
<g><path style="opacity:1" fill="#c0c1c2" d="M 146.5,59.5 C 146.175,67.0191 146.508,74.3524 147.5,81.5C 147.5,83.8333 147.5,86.1667 147.5,88.5C 146.833,88.5 146.167,88.5 145.5,88.5C 145.173,78.6522 145.506,68.9856 146.5,59.5 Z"/></g>
<g><path style="opacity:1" fill="#858991" d="M 16.5,90.5 C 15.661,89.3588 14.9943,88.0255 14.5,86.5C 23.4754,85.5018 32.4754,85.1685 41.5,85.5C 41.5,83.5 41.5,81.5 41.5,79.5C 42.5,79.5 43.5,79.5 44.5,79.5C 44.6636,85.1667 44.9969,85.5 45.5,80.5C 46.5,80.5 47.5,80.5 48.5,80.5C 48.3832,78.5165 49.0499,76.8498 50.5,75.5C 52.6204,76.4033 52.9538,77.7367 51.5,79.5C 52.376,80.2508 53.376,80.7508 54.5,81C 51.854,81.4974 49.1873,81.6641 46.5,81.5C 46.5,82.8333 46.5,84.1667 46.5,85.5C 45.5,85.5 44.5,85.5 43.5,85.5C 43.6602,83.8008 43.4935,82.1341 43,80.5C 42.5045,82.4727 42.3379,84.4727 42.5,86.5C 33.8333,86.5 25.1667,86.5 16.5,86.5C 16.5,87.8333 16.5,89.1667 16.5,90.5 Z"/></g>
<g><path style="opacity:1" fill="#9ea1a5" d="M 117.5,86.5 C 108.651,86.1736 99.9839,86.507 91.5,87.5C 81.3145,87.8034 71.3145,87.8034 61.5,87.5C 67.5483,87.8179 73.2149,86.4845 78.5,83.5C 79.6956,83.8457 79.6956,84.3457 78.5,85C 91.6731,85.169 104.673,85.669 117.5,86.5 Z"/></g>
<g><path style="opacity:1" fill="#cccdcf" d="M 91.5,87.5 C 99.9839,86.507 108.651,86.1736 117.5,86.5C 118.376,86.3691 119.043,86.7025 119.5,87.5C 118.423,88.7051 117.09,89.3718 115.5,89.5C 107.903,87.5332 99.9032,86.8665 91.5,87.5 Z"/></g>
<g><path style="opacity:1" fill="#999b9f" d="M 160.5,84.5 C 156.336,87.3343 151.669,89.001 146.5,89.5C 146.649,90.552 146.483,91.552 146,92.5C 142.49,90.7815 138.656,89.9481 134.5,90C 138.214,89.6805 141.881,89.1805 145.5,88.5C 146.167,88.5 146.833,88.5 147.5,88.5C 151.845,87.1625 156.178,85.8292 160.5,84.5 Z"/></g>
<g><path style="opacity:1" fill="#757983" d="M 115.5,89.5 C 114.781,91.7638 114.448,94.0971 114.5,96.5C 82.8316,96.6666 51.1649,96.5 19.5,96C 17.393,94.7365 16.393,92.9032 16.5,90.5C 17.5964,92.1032 18.9297,93.6032 20.5,95C 51.4982,95.5 82.4982,95.6666 113.5,95.5C 113.054,92.9899 113.72,90.9899 115.5,89.5 Z"/></g>
<g><path style="opacity:1" fill="#bcbcc7" d="M 150.5,92.5 C 159.173,92.3336 167.84,92.5002 176.5,93C 182.132,93.7408 187.465,95.4074 192.5,98C 192,98.1667 191.5,98.3333 191,98.5C 187.064,96.5215 182.897,95.3548 178.5,95C 169.167,94.3333 159.833,94.3333 150.5,95C 132.467,98.1168 114.467,101.45 96.5,105C 94.1667,105.667 91.8333,105.667 89.5,105C 110.008,100.95 130.341,96.7832 150.5,92.5 Z"/></g>
<g><path style="opacity:1" fill="#bfbeca" d="M 154.5,96.5 C 163.552,96.1929 172.552,96.6929 181.5,98C 155.438,98.1277 129.771,101.461 104.5,108C 92.2158,109.912 79.8825,110.912 67.5,111C 63.0566,110.472 58.7232,109.472 54.5,108C 60.4188,108.811 66.4188,109.311 72.5,109.5C 100.171,106.443 127.504,102.109 154.5,96.5 Z"/></g>
<g><path style="opacity:1" fill="#bebec9" d="M 148.5,101.5 C 159.896,101.091 171.23,101.591 182.5,103C 168.807,103.216 155.141,103.882 141.5,105C 125.297,108.756 108.963,111.756 92.5,114C 84.5,114.667 76.5,114.667 68.5,114C 95.7057,112.453 122.372,108.287 148.5,101.5 Z"/></g>
<g><path style="opacity:0.787" fill="#f2f2f2" d="M 35.5,124.5 C 42.3828,123.927 49.0495,124.593 55.5,126.5C 56.3279,125.585 57.3279,124.919 58.5,124.5C 67.0422,124.673 75.5422,124.673 84,124.5C 86.7073,124.628 89.2073,125.295 91.5,126.5C 95.4809,125.234 99.6475,124.568 104,124.5C 117.694,124.632 131.528,124.799 145.5,125C 146,125.5 146.5,126 147,126.5C 148.18,125.316 149.68,124.649 151.5,124.5C 166.08,124.444 180.746,124.611 195.5,125C 197.289,128.249 197.622,131.582 196.5,135C 180.033,135.743 163.533,136.243 147,136.5C 136.534,135.701 126.034,135.201 115.5,135C 113.819,131.534 112.819,131.7 112.5,135.5C 107.489,135.666 102.489,135.499 97.5,135C 96.8742,134.25 96.3742,133.416 96,132.5C 95.594,134.779 94.2607,136.113 92,136.5C 79.2041,135.528 66.3708,135.195 53.5,135.5C 53.1667,131.5 52.8333,131.5 52.5,135.5C 46.4908,135.666 40.4908,135.499 34.5,135C 32.9875,131.276 33.3209,127.776 35.5,124.5 Z"/></g>
<g><path style="opacity:1" fill="#c9c9c9" d="M 40.5,127.5 C 41.7348,127.721 42.7348,128.388 43.5,129.5C 44.8415,127.995 46.5082,127.328 48.5,127.5C 48.5,129.5 48.5,131.5 48.5,133.5C 47.1667,133.5 45.8333,133.5 44.5,133.5C 43.9965,129.665 42.9965,129.665 41.5,133.5C 39.9793,133.12 38.3126,132.954 36.5,133C 38.8384,131.838 40.1717,130.004 40.5,127.5 Z"/></g>
<g><path style="opacity:1" fill="#939393" d="M 49.5,127.5 C 52.5983,127.413 52.9316,127.913 50.5,129C 51.1667,129.333 51.8333,129.667 52.5,130C 51.1509,130.772 50.3176,131.939 50,133.5C 49.5045,131.527 49.3379,129.527 49.5,127.5 Z"/></g>
<g><path style="opacity:1" fill="#bdbdbd" d="M 105.5,127.5 C 108.187,127.336 110.854,127.503 113.5,128C 110.833,128.667 110.833,129.333 113.5,130C 112.069,130.465 110.903,131.299 110,132.5C 109.51,131.207 109.343,129.873 109.5,128.5C 106.402,128.413 106.068,128.913 108.5,130C 107.151,130.772 106.318,131.939 106,133.5C 105.505,131.527 105.338,129.527 105.5,127.5 Z"/></g>
<g><path style="opacity:1" fill="#a4a4a4" d="M 121.5,127.5 C 123.039,129.982 124.539,129.982 126,127.5C 126.622,132.263 126.455,133.263 125.5,130.5C 124.5,130.5 123.5,130.5 122.5,130.5C 122.649,131.552 122.483,132.552 122,133.5C 121.505,131.527 121.338,129.527 121.5,127.5 Z"/></g>
<g><path style="opacity:1" fill="#cccccc" d="M 134.5,127.5 C 137.489,128.635 140.489,128.802 143.5,128C 140.833,128.667 140.833,129.333 143.5,130C 140.833,131 140.833,132 143.5,133C 142.5,133.667 141.5,133.667 140.5,133C 140.619,131.719 140.119,130.552 139,129.5C 137.647,130.685 136.48,132.019 135.5,133.5C 134.808,132.975 134.308,132.308 134,131.5C 133.667,131.833 133.333,132.167 133,132.5C 132.333,131.167 132.333,129.833 133,128.5C 134.107,129.712 134.607,129.379 134.5,127.5 Z"/></g>
<g><path style="opacity:1" fill="#bebebe" d="M 157.5,127.5 C 160.748,128.132 163.915,128.132 167,127.5C 167.833,127.667 168.667,127.833 169.5,128C 168.207,128.49 166.873,128.657 165.5,128.5C 165.582,133.217 164.248,133.383 161.5,129C 160.552,128.517 159.552,128.351 158.5,128.5C 158.657,129.873 158.49,131.207 158,132.5C 156.372,131.038 156.205,129.372 157.5,127.5 Z"/></g>
<g><path style="opacity:1" fill="#c2c3c3" d="M 182.5,127.5 C 186.331,127.6 190.331,127.767 194.5,128C 192.776,128.448 192.109,129.282 192.5,130.5C 190.809,128.744 188.809,128.244 186.5,129C 185.354,131.557 186.354,132.89 189.5,133C 187.343,133.078 185.343,133.245 183.5,133.5C 182.534,131.604 182.201,129.604 182.5,127.5 Z"/></g>
<g><path style="opacity:1" fill="#a5a4a5" d="M 177.5,128.5 C 178.601,127.402 179.934,127.235 181.5,128C 180.773,129.399 180.273,130.899 180,132.5C 179.878,130.563 179.045,129.23 177.5,128.5 Z"/></g>
</svg>
